<svg width="200" height="201" viewBox="0 0 200 201" fill="none" xmlns="http://www.w3.org/2000/svg">
<path d="M179.96 159.424H166.712V159.524H179.96V159.424Z" fill="#EBEBEB"/>
<path d="M132.488 160.512H129.012V160.612H132.488V160.512Z" fill="#EBEBEB"/>
<path d="M166.312 155.712H158.636V155.812H166.312V155.712Z" fill="#EBEBEB"/>
<path d="M38.26 156.384H20.984V156.484H38.26V156.384Z" fill="#EBEBEB"/>
<path d="M44.356 156.384H41.824V156.484H44.356V156.384Z" fill="#EBEBEB"/>
<path d="M90.06 158.072H52.588V158.172H90.06V158.072Z" fill="#EBEBEB"/>
<path d="M95.3601 135.148H18.1201C17.5143 135.148 16.9334 134.908 16.505 134.479C16.0767 134.051 15.8361 133.47 15.8361 132.864V24.2923C15.8413 23.69 16.0843 23.1142 16.5121 22.6902C16.9398 22.2662 17.5178 22.0283 18.1201 22.0283H95.3601C95.66 22.0283 95.957 22.0874 96.2341 22.2022C96.5112 22.317 96.763 22.4852 96.9751 22.6973C97.1872 22.9094 97.3554 23.1612 97.4702 23.4383C97.585 23.7154 97.6441 24.0124 97.6441 24.3123V132.864C97.6441 133.164 97.585 133.461 97.4702 133.738C97.3554 134.015 97.1872 134.267 96.9751 134.479C96.763 134.691 96.5112 134.86 96.2341 134.974C95.957 135.089 95.66 135.148 95.3601 135.148ZM18.1201 22.1083C17.5412 22.1094 16.9863 22.3398 16.5769 22.7492C16.1676 23.1585 15.9371 23.7134 15.9361 24.2923V132.864C15.9371 133.443 16.1676 133.998 16.5769 134.407C16.9863 134.817 17.5412 135.047 18.1201 135.048H95.3601C95.939 135.047 96.4939 134.817 96.9032 134.407C97.3126 133.998 97.543 133.443 97.5441 132.864V24.2923C97.543 23.7134 97.3126 23.1585 96.9032 22.7492C96.4939 22.3398 95.939 22.1094 95.3601 22.1083H18.1201Z" fill="#EBEBEB"/>
<path d="M181.88 135.148H104.64C104.034 135.148 103.453 134.908 103.025 134.479C102.597 134.051 102.356 133.47 102.356 132.864V24.2923C102.361 23.69 102.604 23.1142 103.032 22.6902C103.46 22.2662 104.038 22.0283 104.64 22.0283H181.88C182.486 22.0283 183.067 22.269 183.495 22.6973C183.923 23.1256 184.164 23.7066 184.164 24.3123V132.864C184.164 133.47 183.923 134.051 183.495 134.479C183.067 134.908 182.486 135.148 181.88 135.148ZM104.64 22.1083C104.061 22.1094 103.506 22.3398 103.097 22.7492C102.687 23.1585 102.457 23.7134 102.456 24.2923V132.864C102.457 133.443 102.687 133.998 103.097 134.407C103.506 134.817 104.061 135.047 104.64 135.048H181.88C182.459 135.047 183.014 134.817 183.423 134.407C183.832 133.998 184.063 133.443 184.064 132.864V24.2923C184.063 23.7134 183.832 23.1585 183.423 22.7492C183.014 22.3398 182.459 22.1094 181.88 22.1083H104.64Z" fill="#EBEBEB"/>
<path d="M200 152.988H0V153.088H200V152.988Z" fill="#EBEBEB"/>
<path d="M47.732 125.928C47.396 122.064 43.452 120.62 38.776 121.028C34.1 121.436 30.472 123.544 30.8 127.408L47.732 125.928Z" fill="#F0F0F0"/>
<path d="M38.6239 119.264C40.7919 119.072 41.4839 117.24 41.2959 115.072C41.1079 112.904 40.0959 111.22 37.9359 111.408C35.7759 111.596 35.0759 113.432 35.2639 115.6C35.4519 117.768 36.4559 119.452 38.6239 119.264Z" fill="#F0F0F0"/>
<path d="M136.04 43.6282C136.078 44.0571 135.988 44.4875 135.781 44.8651C135.574 45.2427 135.26 45.5505 134.878 45.7496C134.497 45.9486 134.065 46.0299 133.637 45.9832C133.209 45.9365 132.804 45.7639 132.474 45.4873C132.144 45.2106 131.904 44.8423 131.783 44.429C131.663 44.0157 131.668 43.576 131.797 43.1654C131.927 42.7548 132.175 42.3919 132.511 42.1225C132.847 41.8532 133.255 41.6895 133.684 41.6522C134.258 41.6023 134.829 41.7823 135.271 42.1528C135.713 42.5233 135.989 43.0539 136.04 43.6282Z" fill="#F5F5F5"/>
<path d="M148.068 42.5644C148.105 42.9924 148.015 43.4217 147.808 43.7982C147.601 44.1747 147.287 44.4814 146.906 44.6795C146.525 44.8776 146.093 44.9582 145.666 44.9112C145.239 44.8642 144.836 44.6916 144.507 44.4152C144.178 44.1389 143.939 43.7713 143.819 43.3588C143.699 42.9463 143.704 42.5075 143.833 42.0979C143.962 41.6883 144.21 41.3263 144.546 41.0576C144.881 40.7889 145.288 40.6256 145.716 40.5884C146.29 40.5396 146.859 40.7201 147.3 41.0905C147.741 41.4609 148.017 41.9909 148.068 42.5644Z" fill="#F5F5F5"/>
<path d="M160.1 41.5123C160.138 41.9411 160.048 42.3716 159.841 42.7492C159.634 43.1268 159.32 43.4346 158.938 43.6336C158.557 43.8326 158.124 43.9139 157.696 43.8672C157.269 43.8206 156.864 43.648 156.534 43.3713C156.204 43.0947 155.964 42.7264 155.843 42.3131C155.723 41.8998 155.728 41.46 155.857 41.0494C155.987 40.6389 156.235 40.2759 156.571 40.0066C156.907 39.7372 157.315 39.5735 157.744 39.5363C158.318 39.4863 158.889 39.6664 159.331 40.0369C159.773 40.4073 160.049 40.938 160.1 41.5123Z" fill="#F5F5F5"/>
<path d="M137.112 55.8763C137.15 56.3051 137.06 56.7356 136.853 57.1132C136.646 57.4908 136.332 57.7986 135.95 57.9976C135.569 58.1966 135.136 58.278 134.708 58.2313C134.28 58.1846 133.876 58.012 133.546 57.7353C133.216 57.4587 132.976 57.0904 132.855 56.6771C132.735 56.2638 132.74 55.824 132.869 55.4134C132.999 55.0029 133.247 54.6399 133.583 54.3706C133.919 54.1012 134.327 53.9376 134.756 53.9003C135.33 53.8503 135.901 54.0304 136.343 54.4009C136.784 54.7713 137.061 55.302 137.112 55.8763Z" fill="#F5F5F5"/>
<path d="M149.14 54.8284C149.177 55.2564 149.087 55.6857 148.88 56.0622C148.673 56.4387 148.359 56.7454 147.978 56.9435C147.597 57.1416 147.165 57.2222 146.738 57.1752C146.311 57.1281 145.908 56.9556 145.579 56.6792C145.25 56.4029 145.011 56.0353 144.891 55.6228C144.771 55.2103 144.776 54.7715 144.905 54.3619C145.035 53.9523 145.282 53.5903 145.618 53.3216C145.953 53.0529 146.36 52.8896 146.788 52.8524C147.072 52.8277 147.359 52.8592 147.631 52.9451C147.903 53.0311 148.155 53.1697 148.373 53.3532C148.592 53.5367 148.772 53.7615 148.903 54.0146C149.035 54.2677 149.115 54.5442 149.14 54.8284Z" fill="#F5F5F5"/>
<path d="M161.172 53.7723C161.21 54.2011 161.12 54.6316 160.913 55.0092C160.706 55.3868 160.392 55.6946 160.01 55.8936C159.629 56.0926 159.196 56.1739 158.769 56.1273C158.341 56.0806 157.936 55.908 157.606 55.6313C157.276 55.3547 157.036 54.9864 156.915 54.5731C156.795 54.1598 156.8 53.72 156.929 53.3094C157.059 52.8989 157.307 52.5359 157.643 52.2666C157.979 51.9972 158.387 51.8336 158.816 51.7963C159.39 51.7463 159.961 51.9264 160.403 52.2969C160.845 52.6673 161.121 53.198 161.172 53.7723Z" fill="#F5F5F5"/>
<path d="M138.184 68.1403C138.221 68.5682 138.131 68.9976 137.924 69.3741C137.717 69.7505 137.403 70.0572 137.022 70.2553C136.641 70.4534 136.209 70.5341 135.782 70.487C135.355 70.44 134.952 70.2674 134.623 69.9911C134.294 69.7148 134.055 69.3471 133.935 68.9347C133.815 68.5222 133.82 68.0834 133.949 67.6738C134.078 67.2642 134.326 66.9021 134.662 66.6334C134.997 66.3647 135.404 66.2015 135.832 66.1643C136.116 66.139 136.403 66.1701 136.675 66.2559C136.947 66.3416 137.2 66.4802 137.418 66.6638C137.637 66.8474 137.817 67.0723 137.948 67.3257C138.08 67.5791 138.16 67.8559 138.184 68.1403Z" fill="#F5F5F5"/>
<path d="M150.216 67.0843C150.254 67.5131 150.164 67.9436 149.957 68.3212C149.75 68.6988 149.436 69.0066 149.054 69.2056C148.673 69.4046 148.24 69.486 147.812 69.4393C147.384 69.3926 146.98 69.22 146.65 68.9433C146.32 68.6667 146.08 68.2984 145.959 67.8851C145.839 67.4718 145.844 67.032 145.973 66.6214C146.103 66.2109 146.351 65.848 146.687 65.5786C147.023 65.3092 147.431 65.1456 147.86 65.1083C148.434 65.0583 149.005 65.2384 149.447 65.6089C149.888 65.9794 150.165 66.51 150.216 67.0843Z" fill="#F5F5F5"/>
<path d="M162.244 66.0284C162.282 66.4572 162.192 66.8877 161.985 67.2653C161.778 67.6429 161.464 67.9507 161.082 68.1497C160.701 68.3487 160.269 68.43 159.841 68.3834C159.413 68.3367 159.008 68.1641 158.678 67.8874C158.348 67.6108 158.108 67.2425 157.987 66.8292C157.867 66.4159 157.872 65.9761 158.001 65.5655C158.131 65.155 158.379 64.792 158.715 64.5227C159.051 64.2533 159.459 64.0897 159.888 64.0524C160.462 64.0024 161.033 64.1825 161.475 64.553C161.917 64.9234 162.193 65.4541 162.244 66.0284Z" fill="#F5F5F5"/>
<path d="M159.644 66.7404L134.932 68.9004L156.844 42.2764L134.4 44.2404C134.337 44.2464 134.274 44.2399 134.214 44.2211C134.154 44.2023 134.098 44.1717 134.05 44.1311C134.002 44.0905 133.963 44.0407 133.934 43.9846C133.906 43.9284 133.889 43.8672 133.884 43.8044C133.873 43.6787 133.912 43.5537 133.993 43.457C134.074 43.3602 134.19 43.2996 134.316 43.2884L159.032 41.1284L137.116 67.7524L159.568 65.7884C159.695 65.7784 159.82 65.8185 159.917 65.9C160.015 65.9816 160.076 66.0981 160.088 66.2244C160.093 66.2875 160.085 66.3509 160.066 66.411C160.046 66.4711 160.015 66.5268 159.973 66.5747C159.932 66.6227 159.882 66.662 159.825 66.6904C159.769 66.7189 159.707 66.7359 159.644 66.7404Z" fill="#E6E6E6"/>
<path d="M160.024 114.272C159.986 114.156 159.914 114.053 159.818 113.977C159.722 113.901 159.606 113.855 159.484 113.844C158.409 113.795 157.392 113.346 156.632 112.584C155.644 111.588 155.064 110.08 154.968 108.288C154.959 108.127 154.888 107.975 154.771 107.863C154.653 107.752 154.498 107.689 154.336 107.688C154.248 107.689 154.162 107.707 154.082 107.742C154.001 107.777 153.929 107.827 153.869 107.891C153.808 107.954 153.762 108.03 153.731 108.112C153.701 108.194 153.688 108.281 153.692 108.368C153.804 110.472 154.516 112.272 155.728 113.484C156.677 114.435 157.936 115.013 159.276 115.112H159.368C159.473 115.12 159.579 115.102 159.675 115.06C159.772 115.017 159.856 114.951 159.921 114.868C159.986 114.785 160.029 114.687 160.047 114.583C160.065 114.479 160.057 114.373 160.024 114.272Z" fill="#F0F0F0"/>
<path d="M158.744 121.948C153.444 121.484 149.62 117.872 148.412 112.232C148.393 112.148 148.391 112.06 148.406 111.975C148.422 111.889 148.455 111.808 148.502 111.735C148.55 111.663 148.612 111.601 148.685 111.553C148.757 111.505 148.839 111.472 148.924 111.456C149.086 111.428 149.253 111.462 149.39 111.553C149.527 111.644 149.623 111.784 149.66 111.944C150.744 117.012 154.144 120.26 158.86 120.672C164.028 121.124 169.576 117.724 170.572 109.156C170.589 108.989 170.671 108.836 170.801 108.729C170.93 108.622 171.097 108.57 171.264 108.584C171.349 108.591 171.431 108.615 171.507 108.655C171.582 108.694 171.649 108.748 171.703 108.814C171.757 108.88 171.797 108.955 171.821 109.037C171.846 109.118 171.853 109.204 171.844 109.288C170.888 117.368 165.576 122.544 158.744 121.948Z" fill="#F0F0F0"/>
<path d="M148.744 106.612C148.659 106.605 148.577 106.581 148.501 106.542C148.426 106.503 148.359 106.448 148.305 106.383C148.251 106.317 148.211 106.241 148.187 106.16C148.162 106.078 148.155 105.993 148.164 105.908C149.116 97.8283 154.428 92.6483 161.256 93.2483C167.256 93.7723 171.276 98.2523 171.904 105C171.911 105.085 171.9 105.17 171.873 105.251C171.847 105.332 171.804 105.406 171.748 105.47C171.692 105.534 171.624 105.586 171.548 105.624C171.472 105.661 171.389 105.683 171.304 105.688C171.137 105.696 170.974 105.639 170.848 105.528C170.723 105.418 170.645 105.263 170.632 105.096C170.052 99.0163 166.464 94.9883 161.148 94.5243C156 94.0723 150.428 97.4683 149.436 106.028C149.429 106.112 149.405 106.194 149.367 106.268C149.328 106.343 149.275 106.409 149.211 106.464C149.147 106.518 149.072 106.559 148.992 106.584C148.912 106.61 148.828 106.619 148.744 106.612Z" fill="#F0F0F0"/>
<path d="M159.004 118.52C158.054 118.444 157.123 118.212 156.248 117.832C156.166 117.797 156.093 117.744 156.033 117.679C155.973 117.613 155.926 117.536 155.898 117.452C155.869 117.368 155.857 117.278 155.865 117.19C155.872 117.101 155.898 117.015 155.94 116.936C156.015 116.799 156.138 116.694 156.286 116.642C156.434 116.591 156.596 116.596 156.74 116.656C157.574 117.015 158.465 117.22 159.372 117.264C163.288 117.488 167.424 114.712 167.832 108.008C168.08 103.876 166.664 100.54 164.024 98.9444C163.887 98.8617 163.787 98.7309 163.741 98.5777C163.696 98.4245 163.71 98.2599 163.78 98.1164C163.82 98.037 163.875 97.9667 163.944 97.9097C164.012 97.8528 164.091 97.8104 164.176 97.7853C164.261 97.7602 164.35 97.7528 164.438 97.7636C164.527 97.7745 164.611 97.8033 164.688 97.8484C167.748 99.6964 169.388 103.448 169.108 108.084C168.708 114.548 164.684 118.852 159.296 118.544L159.004 118.52Z" fill="#F0F0F0"/>
<path d="M153.308 114.532C153.234 114.582 153.151 114.616 153.064 114.632C152.976 114.649 152.887 114.647 152.8 114.627C152.713 114.607 152.632 114.57 152.56 114.517C152.489 114.464 152.429 114.397 152.384 114.32C151.198 112.116 150.677 109.615 150.884 107.12C151.26 100.932 154.968 96.7201 160.004 96.6481C160.093 96.6463 160.181 96.6628 160.263 96.6967C160.345 96.7306 160.419 96.781 160.481 96.8448C160.542 96.9087 160.59 96.9846 160.621 97.0677C160.652 97.1509 160.665 97.2395 160.66 97.3281C160.65 97.4881 160.58 97.6385 160.465 97.7496C160.349 97.8607 160.196 97.9244 160.036 97.9281C156.3 98.0001 152.548 100.824 152.164 107.196C151.97 109.448 152.434 111.707 153.5 113.7C153.58 113.838 153.605 114.002 153.569 114.158C153.534 114.314 153.44 114.45 153.308 114.54V114.532Z" fill="#F0F0F0"/>
<path d="M162.052 114.028C161.991 113.886 161.984 113.727 162.032 113.58C162.08 113.433 162.179 113.308 162.312 113.228C163.996 112.216 165.028 110.092 165.044 107.528C165.044 105.476 164.464 103.74 163.368 102.64C162.942 102.219 162.435 101.888 161.877 101.67C161.32 101.451 160.723 101.348 160.124 101.368C158.152 101.368 156.552 102.452 155.668 104.356C155.6 104.501 155.48 104.615 155.331 104.675C155.183 104.735 155.018 104.737 154.868 104.68C154.785 104.649 154.708 104.602 154.644 104.54C154.58 104.478 154.53 104.404 154.496 104.321C154.462 104.239 154.446 104.15 154.448 104.062C154.45 103.973 154.47 103.885 154.508 103.804C155.604 101.472 157.656 100.092 160.108 100.088C160.876 100.069 161.64 100.204 162.355 100.488C163.069 100.771 163.718 101.196 164.264 101.736C165.604 103.08 166.332 105.14 166.316 107.54C166.292 110.56 165.02 113.096 162.948 114.34C162.87 114.383 162.783 114.409 162.694 114.416C162.605 114.424 162.515 114.412 162.431 114.383C162.346 114.354 162.269 114.307 162.204 114.246C162.139 114.185 162.087 114.111 162.052 114.028Z" fill="#F0F0F0"/>
<path d="M157.444 109.304C157.359 109.339 157.267 109.355 157.174 109.351C157.082 109.347 156.992 109.323 156.91 109.281C156.828 109.239 156.756 109.179 156.699 109.107C156.642 109.034 156.601 108.95 156.58 108.86C156.536 108.688 156.504 108.508 156.476 108.324C156.112 105.924 157.4 103.848 159.468 103.476C159.95 103.372 160.449 103.381 160.926 103.504C161.403 103.627 161.845 103.86 162.216 104.184C162.286 104.246 162.34 104.323 162.376 104.409C162.412 104.495 162.428 104.588 162.423 104.681C162.418 104.774 162.392 104.865 162.347 104.946C162.303 105.028 162.24 105.098 162.164 105.152L162.124 105.18C162.004 105.264 161.859 105.303 161.713 105.292C161.568 105.282 161.43 105.221 161.324 105.12C161.1 104.931 160.834 104.796 160.549 104.727C160.264 104.657 159.966 104.655 159.68 104.72C158.104 105.004 157.504 106.644 157.728 108.116C157.752 108.26 157.776 108.4 157.812 108.516C157.851 108.667 157.833 108.827 157.764 108.966C157.694 109.105 157.576 109.213 157.432 109.272L157.444 109.304Z" fill="#F0F0F0"/>
<path d="M159.56 111.768C159.459 111.758 159.362 111.723 159.279 111.665C159.196 111.608 159.128 111.53 159.084 111.439C159.039 111.348 159.018 111.247 159.023 111.146C159.028 111.045 159.058 110.946 159.112 110.86L159.168 110.772C159.225 110.681 159.307 110.606 159.403 110.558C159.5 110.509 159.608 110.488 159.716 110.496C159.917 110.508 160.118 110.496 160.316 110.46C161.692 110.212 162.316 108.932 162.316 107.628C162.312 107.472 162.365 107.319 162.465 107.198C162.565 107.078 162.705 106.997 162.86 106.972C162.949 106.959 163.039 106.964 163.126 106.988C163.213 107.011 163.293 107.053 163.363 107.11C163.432 107.167 163.489 107.238 163.529 107.318C163.569 107.399 163.592 107.486 163.596 107.576C163.632 109.664 162.396 111.388 160.544 111.72C160.22 111.78 159.889 111.796 159.56 111.768Z" fill="#F0F0F0"/>
<path d="M159.844 109.404C159.521 109.377 159.215 109.249 158.968 109.039C158.721 108.829 158.546 108.547 158.468 108.232C158.446 108.143 158.444 108.051 158.465 107.961C158.485 107.872 158.527 107.789 158.586 107.719C158.645 107.649 158.72 107.594 158.805 107.559C158.889 107.523 158.981 107.509 159.072 107.516H159.22C159.332 107.528 159.438 107.572 159.526 107.643C159.613 107.714 159.678 107.809 159.712 107.916C159.726 107.972 159.757 108.022 159.801 108.059C159.844 108.097 159.899 108.119 159.956 108.124C160.264 108.152 160.316 107.724 160.324 107.62C160.343 107.464 160.313 107.307 160.24 107.168C160.13 107.035 160.073 106.865 160.08 106.692C160.09 106.565 160.138 106.444 160.218 106.344C160.297 106.244 160.404 106.171 160.526 106.133C160.648 106.094 160.778 106.093 160.9 106.129C161.022 106.166 161.131 106.238 161.212 106.336C161.524 106.731 161.668 107.232 161.612 107.732C161.508 108.784 160.768 109.484 159.844 109.404Z" fill="#F0F0F0"/>
<path d="M147.812 95.0881C147.728 95.0811 147.647 95.0576 147.572 95.0189C147.498 94.9803 147.432 94.9273 147.378 94.8629C147.324 94.7986 147.283 94.7242 147.258 94.6441C147.233 94.564 147.224 94.4797 147.232 94.3961L147.716 88.8481L153.264 89.3361C153.348 89.3432 153.429 89.3667 153.504 89.4054C153.578 89.444 153.644 89.497 153.698 89.5614C153.752 89.6257 153.793 89.7001 153.818 89.7802C153.843 89.8603 153.852 89.9446 153.844 90.0281C153.837 90.1119 153.813 90.1935 153.775 90.2682C153.736 90.3429 153.683 90.4093 153.619 90.4635C153.555 90.5178 153.48 90.5588 153.4 90.5843C153.32 90.6098 153.236 90.6193 153.152 90.6121L148.88 90.2361L148.508 94.5081C148.501 94.592 148.477 94.6735 148.437 94.748C148.398 94.8225 148.345 94.8886 148.28 94.9425C148.216 94.9964 148.141 95.037 148.061 95.062C147.98 95.0869 147.896 95.0958 147.812 95.0881Z" fill="#F0F0F0"/>
<path d="M174.184 97.3964C174.1 97.3894 174.019 97.3659 173.944 97.3272C173.87 97.2885 173.804 97.2355 173.75 97.1712C173.696 97.1069 173.655 97.0325 173.63 96.9524C173.605 96.8723 173.596 96.788 173.604 96.7044L173.976 92.4324L169.704 92.0604C169.62 92.0529 169.539 92.0289 169.464 91.9898C169.39 91.9507 169.324 91.8973 169.27 91.8327C169.216 91.7681 169.175 91.6934 169.15 91.6131C169.125 91.5327 169.116 91.4482 169.124 91.3644C169.131 91.2808 169.155 91.1994 169.193 91.1248C169.232 91.0503 169.285 90.9842 169.349 90.9303C169.414 90.8764 169.488 90.8357 169.568 90.8107C169.648 90.7857 169.732 90.7767 169.816 90.7844L175.364 91.2684L174.88 96.8284C174.862 96.9955 174.779 97.1488 174.648 97.255C174.518 97.3613 174.351 97.4121 174.184 97.3964Z" fill="#F0F0F0"/>
<path d="M172.22 127.228L166.672 126.745C166.588 126.737 166.507 126.713 166.432 126.674C166.358 126.635 166.292 126.581 166.238 126.517C166.184 126.452 166.143 126.378 166.118 126.297C166.093 126.217 166.084 126.132 166.092 126.048C166.099 125.965 166.123 125.883 166.161 125.809C166.2 125.734 166.253 125.668 166.317 125.614C166.382 125.56 166.456 125.52 166.536 125.495C166.616 125.47 166.7 125.461 166.784 125.468L171.056 125.84L171.428 121.572C171.435 121.488 171.459 121.406 171.498 121.331C171.536 121.256 171.59 121.19 171.654 121.136C171.719 121.081 171.794 121.04 171.875 121.015C171.955 120.99 172.04 120.981 172.124 120.988C172.208 120.996 172.289 121.019 172.364 121.058C172.438 121.096 172.504 121.149 172.558 121.214C172.612 121.278 172.653 121.352 172.678 121.433C172.703 121.513 172.712 121.597 172.704 121.68L172.22 127.228Z" fill="#F0F0F0"/>
<path d="M150.12 125.285L144.572 124.797L145.056 119.253C145.072 119.083 145.154 118.927 145.285 118.818C145.415 118.709 145.583 118.655 145.752 118.669C145.836 118.676 145.917 118.7 145.992 118.739C146.066 118.778 146.133 118.832 146.186 118.896C146.24 118.961 146.281 119.036 146.306 119.116C146.331 119.196 146.34 119.281 146.332 119.365L145.96 123.629L150.228 124.005C150.312 124.012 150.393 124.035 150.468 124.074C150.543 124.112 150.609 124.165 150.663 124.229C150.718 124.294 150.759 124.368 150.784 124.448C150.81 124.528 150.819 124.613 150.812 124.697C150.798 124.866 150.717 125.023 150.587 125.133C150.458 125.243 150.29 125.298 150.12 125.285Z" fill="#F0F0F0"/>
<path d="M29.892 113.281C29.7877 113.288 29.6846 113.255 29.6046 113.188C29.5246 113.12 29.4741 113.025 29.464 112.921L29.168 109.513L32.576 109.213C32.6802 109.205 32.7834 109.238 32.8633 109.305C32.9433 109.373 32.9938 109.469 33.004 109.573C33.0107 109.676 32.9769 109.778 32.9097 109.857C32.8426 109.936 32.7473 109.986 32.644 109.997L30.02 110.229L30.248 112.853C30.2558 112.956 30.2231 113.059 30.1566 113.139C30.0902 113.219 29.9953 113.269 29.892 113.281Z" fill="#E0E0E0"/>
<path d="M46.108 111.86C46.0044 111.868 45.9018 111.836 45.8219 111.769C45.742 111.703 45.6911 111.608 45.68 111.504L45.452 108.876L42.824 109.108C42.7198 109.116 42.6166 109.083 42.5366 109.016C42.4567 108.948 42.4062 108.852 42.396 108.748C42.3882 108.644 42.4215 108.541 42.4888 108.461C42.5561 108.381 42.652 108.331 42.756 108.32L46.164 108.024L46.464 111.432C46.4719 111.536 46.4391 111.639 46.3727 111.719C46.3062 111.798 46.2113 111.849 46.108 111.86Z" fill="#E0E0E0"/>
<path d="M47.788 126.545L44.376 126.845C44.2718 126.852 44.1686 126.819 44.0886 126.752C44.0087 126.684 43.9582 126.589 43.948 126.485C43.9402 126.38 43.9735 126.277 44.0408 126.197C44.1081 126.117 44.204 126.067 44.308 126.057L46.932 125.829L46.704 123.205C46.6961 123.101 46.7289 122.998 46.7953 122.918C46.8618 122.839 46.9567 122.788 47.06 122.777C47.1636 122.769 47.2662 122.801 47.3461 122.868C47.426 122.934 47.4769 123.029 47.488 123.133L47.788 126.545Z" fill="#E0E0E0"/>
<path d="M34.196 127.732L30.8 128.028L30.5 124.616C30.4933 124.513 30.5271 124.411 30.5942 124.331C30.6614 124.252 30.7567 124.202 30.86 124.192C30.9629 124.185 31.0645 124.219 31.1435 124.285C31.2225 124.351 31.2729 124.446 31.284 124.548L31.516 127.176L34.14 126.944C34.2442 126.936 34.3474 126.97 34.4274 127.037C34.5073 127.104 34.5578 127.2 34.568 127.304C34.5718 127.357 34.5652 127.41 34.5485 127.46C34.5319 127.51 34.5055 127.556 34.4709 127.596C34.4364 127.635 34.3943 127.668 34.3471 127.691C34.2999 127.715 34.2486 127.729 34.196 127.732Z" fill="#E0E0E0"/>
<path d="M45.832 56.4284L32.8 57.5484L32.532 54.4964C32.5124 53.0398 33.0443 51.6297 34.021 50.5489C34.9977 49.468 36.3469 48.7965 37.7981 48.669C39.2492 48.5414 40.6949 48.9673 41.8452 49.8611C42.9954 50.755 43.7652 52.0507 44 53.4884L44.152 55.2644L46.036 55.1004L45.88 53.3244C45.7923 52.3227 45.5081 51.348 45.0437 50.4561C44.5793 49.5642 43.9438 48.7725 43.1735 48.1262C42.4031 47.4799 41.513 46.9917 40.554 46.6894C39.5949 46.3871 38.5857 46.2767 37.584 46.3644C35.5609 46.5416 33.6911 47.5151 32.3858 49.0709C31.7395 49.8413 31.2513 50.7314 30.949 51.6904C30.6467 52.6495 30.5363 53.6587 30.624 54.6604L30.892 57.7324C30.1499 57.8776 29.4878 58.2921 29.0329 58.8962C28.578 59.5002 28.3626 60.2511 28.428 61.0044L29.36 71.6604C29.3932 72.0626 29.5056 72.4542 29.6906 72.8129C29.8757 73.1715 30.1297 73.4901 30.4382 73.7502C30.7467 74.0104 31.1035 74.2071 31.4883 74.3289C31.873 74.4508 32.278 74.4955 32.68 74.4604L47.292 73.1844C47.6942 73.1512 48.0858 73.0388 48.4445 72.8538C48.8031 72.6687 49.1217 72.4147 49.3818 72.1062C49.642 71.7977 49.8387 71.4408 49.9605 71.0561C50.0824 70.6714 50.1271 70.2664 50.092 69.8644L49.16 59.2084C49.1243 58.8072 49.0099 58.417 48.8232 58.0601C48.6366 57.7032 48.3815 57.3866 48.0724 57.1284C47.7633 56.8702 47.4063 56.6755 47.0219 56.5554C46.6374 56.4353 46.2331 56.3921 45.832 56.4284ZM40.288 64.6404L40.608 68.3084C40.6295 68.456 40.6207 68.6065 40.582 68.7506C40.5434 68.8947 40.4757 69.0294 40.3832 69.1464C40.2907 69.2634 40.1752 69.3603 40.0439 69.4312C39.9126 69.502 39.7682 69.5453 39.6196 69.5584C39.471 69.5715 39.3213 69.5541 39.1796 69.5073C39.038 69.4605 38.9074 69.3852 38.7958 69.2862C38.6842 69.1871 38.5941 69.0664 38.5308 68.9312C38.4676 68.7961 38.4326 68.6495 38.428 68.5004L38.108 64.8284C37.778 64.6258 37.5204 64.3242 37.3718 63.9666C37.2232 63.609 37.1912 63.2136 37.2803 62.8368C37.3695 62.4599 37.5753 62.1208 37.8684 61.8678C38.1615 61.6147 38.527 61.4605 38.9128 61.4273C39.2986 61.394 39.6851 61.4833 40.0172 61.6824C40.3493 61.8816 40.6101 62.1805 40.7625 62.5365C40.9148 62.8925 40.951 63.2875 40.8658 63.6652C40.7806 64.043 40.5784 64.3842 40.288 64.6404Z" fill="#EBEBEB"/>
<path d="M68.176 62.5844L66.86 60.4284C66.1967 60.5229 65.5233 60.5229 64.86 60.4284L63.54 62.5764L63.288 62.5084C62.4326 62.2831 61.6118 61.9426 60.848 61.4964L60.624 61.3684L61.18 59.0324C61.1908 58.9871 61.2105 58.9444 61.2379 58.9067C61.2653 58.8691 61.2999 58.8372 61.3397 58.813C61.3795 58.7889 61.4237 58.7728 61.4698 58.7658C61.5159 58.7589 61.5628 58.7611 61.608 58.7724C61.6987 58.7943 61.777 58.8512 61.8257 58.9307C61.8745 59.0101 61.8897 59.1057 61.868 59.1964L61.428 61.0164C61.9965 61.3261 62.5957 61.5755 63.216 61.7604L64.504 59.6564L64.74 59.6964C65.4872 59.8165 66.2488 59.8165 66.996 59.6964L67.228 59.6564L68.516 61.7604C69.1369 61.5769 69.7363 61.3275 70.304 61.0164L69.732 58.6164L69.924 58.4764C70.4451 58.1007 70.9121 57.6552 71.312 57.1524C71.3676 57.08 71.4492 57.032 71.5395 57.0186C71.6298 57.0052 71.7218 57.0273 71.796 57.0804C71.8349 57.1074 71.8679 57.1421 71.893 57.1822C71.918 57.2224 71.9346 57.2673 71.9417 57.3141C71.9488 57.3609 71.9463 57.4086 71.9343 57.4544C71.9223 57.5002 71.9011 57.5431 71.872 57.5804C71.479 58.0768 71.0262 58.5228 70.524 58.9084L71.112 61.3604L70.884 61.4884C70.1213 61.9339 69.3019 62.2743 68.448 62.5004L68.176 62.5844ZM60.088 57.8884C59.98 57.7644 59.872 57.6324 59.768 57.4884L57.316 58.0764L57.184 57.8524C56.7411 57.087 56.4009 56.2666 56.172 55.4124L56.108 55.1604L58.256 53.8404C58.1616 53.1771 58.1616 52.5038 58.256 51.8404L56.108 50.5244L56.172 50.2684C56.4009 49.4155 56.7412 48.5965 57.184 47.8324L57.316 47.6044L59.768 48.1924C60.1774 47.6567 60.6563 47.1778 61.192 46.7684L60.748 44.9124C60.7264 44.8217 60.7416 44.7261 60.7903 44.6467C60.8391 44.5672 60.9174 44.5103 61.008 44.4884C61.0527 44.4778 61.099 44.476 61.1443 44.4833C61.1897 44.4906 61.2331 44.5068 61.2722 44.531C61.3112 44.5552 61.3451 44.5868 61.3718 44.6241C61.3986 44.6615 61.4177 44.7037 61.428 44.7484L61.984 47.0604L61.792 47.1964C61.1758 47.6398 60.6354 48.1802 60.192 48.7964L60.052 48.9884L57.652 48.4164C57.341 48.9842 57.0916 49.5836 56.908 50.2044L59.008 51.4924L58.972 51.7244C58.8384 52.4705 58.8384 53.2344 58.972 53.9804L59.008 54.2164L56.908 55.5044C57.0923 56.1237 57.3417 56.7217 57.652 57.2884L60.052 56.7164L60.192 56.9084C60.3164 57.0898 60.4499 57.2647 60.592 57.4324C60.6537 57.4971 60.688 57.5831 60.688 57.6724C60.688 57.7618 60.6537 57.8477 60.592 57.9124C60.5579 57.9451 60.5175 57.9704 60.4733 57.987C60.4291 58.0035 60.382 58.0109 60.3349 58.0086C60.2877 58.0064 60.2415 57.9946 60.1991 57.9739C60.1567 57.9532 60.1189 57.9242 60.088 57.8884ZM74.384 58.0844L73.48 57.8684C73.3894 57.8466 73.3111 57.7897 73.2623 57.7102C73.2136 57.6307 73.1984 57.5351 73.22 57.4444C73.2419 57.3538 73.2988 57.2755 73.3782 57.2267C73.4577 57.178 73.5533 57.1628 73.644 57.1844L74.044 57.2764C74.3531 56.7096 74.6011 56.1116 74.784 55.4924L72.684 54.2044L72.724 53.9684C72.8576 53.2224 72.8576 52.4585 72.724 51.7124L72.684 51.4804L74.784 50.1924C74.6019 49.5717 74.3538 48.9723 74.044 48.4044L71.644 48.9764L71.508 48.7844C71.0636 48.1691 70.5234 47.6289 69.908 47.1844L69.716 47.0484L70.288 44.6484C69.7202 44.3386 69.1207 44.0906 68.5 43.9084L67.2 46.0284L66.968 45.9884C66.2208 45.8684 65.4592 45.8684 64.712 45.9884L64.476 46.0284L63.2 43.9164L62.96 43.9884C62.8746 44.0166 62.7815 44.0102 62.7008 43.9705C62.62 43.9309 62.558 43.8612 62.528 43.7764C62.5115 43.7326 62.5039 43.6859 62.5057 43.6391C62.5074 43.5923 62.5185 43.5464 62.5382 43.5039C62.558 43.4614 62.586 43.4233 62.6206 43.3918C62.6553 43.3603 62.6959 43.3361 62.74 43.3204C62.916 43.2644 63.096 43.2124 63.272 43.1644L63.524 43.0964L64.844 45.2484C65.5071 45.1499 66.181 45.1499 66.844 45.2484L68.16 43.0964L68.416 43.1644C69.2693 43.3923 70.0885 43.7326 70.852 44.1764L71.08 44.3084L70.492 46.7604C71.0286 47.1689 71.5075 47.6479 71.916 48.1844L74.368 47.5964L74.5 47.8244C74.9446 48.5876 75.2849 49.4069 75.512 50.2604L75.58 50.5164L73.428 51.8324C73.5277 52.4954 73.5277 53.1695 73.428 53.8324L75.58 55.1524L75.512 55.4044C75.2849 56.2592 74.9446 57.0798 74.5 57.8444L74.384 58.0844ZM65.752 56.2684C64.8804 56.2339 64.0539 55.8722 63.4371 55.2554C62.8203 54.6386 62.4586 53.812 62.424 52.9404C62.4002 52.0832 62.6983 51.248 63.2594 50.5995C63.8206 49.951 64.6042 49.5361 65.456 49.4364C65.506 49.4302 65.5567 49.4347 65.6049 49.4495C65.653 49.4643 65.6974 49.4892 65.7352 49.5225C65.773 49.5557 65.8033 49.5966 65.8242 49.6425C65.845 49.6883 65.8559 49.7381 65.856 49.7884C65.8556 49.8735 65.824 49.9555 65.7673 50.0189C65.7105 50.0823 65.6325 50.1227 65.548 50.1324C64.9553 50.2 64.4011 50.4604 63.9707 50.8734C63.5402 51.2865 63.2573 51.8294 63.1653 52.4189C63.0733 53.0083 63.1773 53.6117 63.4615 54.1362C63.7456 54.6608 64.1941 55.0776 64.738 55.3226C65.282 55.5676 65.8913 55.6272 66.4725 55.4924C67.0536 55.3575 67.5744 55.0356 67.9549 54.5761C68.3353 54.1166 68.5544 53.5448 68.5785 52.9487C68.6025 52.3526 68.4302 51.7651 68.088 51.2764C68.0386 51.2072 68.017 51.122 68.0274 51.0375C68.0377 50.9531 68.0794 50.8757 68.144 50.8204C68.1814 50.7873 68.2253 50.7624 68.273 50.7476C68.3206 50.7327 68.3709 50.7281 68.4205 50.7342C68.47 50.7403 68.5177 50.7568 68.5604 50.7827C68.6031 50.8086 68.6398 50.8433 68.668 50.8844C69.0319 51.405 69.2438 52.0165 69.2801 52.6506C69.3163 53.2847 69.1755 53.9163 68.8734 54.475C68.5712 55.0336 68.1196 55.4972 67.5691 55.8139C67.0186 56.1307 66.3908 56.288 65.756 56.2684H65.752Z" fill="#F0F0F0"/>
<path d="M43.324 91.8642L42.472 90.4762C42.041 90.5402 41.6029 90.5402 41.172 90.4762L40.32 91.8642L40.156 91.8202C39.6038 91.6745 39.0737 91.4552 38.58 91.1682L38.436 91.0842L38.796 89.5722C38.8102 89.5141 38.8467 89.464 38.8976 89.4326C38.9485 89.4011 39.0096 89.391 39.068 89.4042C39.0971 89.4113 39.1246 89.424 39.1489 89.4417C39.1732 89.4594 39.1937 89.4817 39.2093 89.5073C39.2249 89.533 39.2353 89.5614 39.2399 89.5911C39.2444 89.6208 39.2431 89.6511 39.236 89.6802L38.956 90.8562C39.3229 91.0573 39.7105 91.2182 40.112 91.3362L40.944 89.9802L41.092 90.0042C41.5753 90.0842 42.0686 90.0842 42.552 90.0042L42.7 89.9802L43.536 91.3362C43.9352 91.2157 44.3212 91.0549 44.688 90.8562L44.32 89.3122L44.444 89.2202C44.7802 88.9786 45.0817 88.6919 45.34 88.3682C45.3751 88.3207 45.4276 88.2889 45.4861 88.2799C45.5445 88.2709 45.6041 88.2854 45.652 88.3202C45.6765 88.3377 45.6974 88.3599 45.7133 88.3855C45.7292 88.4111 45.7399 88.4396 45.7447 88.4694C45.7496 88.4991 45.7485 88.5295 45.7415 88.5589C45.7345 88.5882 45.7217 88.6158 45.704 88.6402C45.4491 88.9611 45.1563 89.2499 44.832 89.5002L45.232 91.1002L45.084 91.1842C44.5906 91.4719 44.0604 91.6912 43.508 91.8362L43.324 91.8642ZM38.1 88.8282L37.892 88.5762L36.292 88.9522L36.208 88.8082C35.9262 88.3124 35.7122 87.781 35.572 87.2282L35.528 87.0642L36.916 86.2122C36.8519 85.7812 36.8519 85.3432 36.916 84.9122L35.528 84.0602L35.572 83.8962C35.7169 83.3438 35.9363 82.8136 36.224 82.3202L36.308 82.1722L37.908 82.5722C38.1652 82.222 38.4648 81.9049 38.8 81.6282L38.516 80.4282C38.5088 80.3993 38.5076 80.3693 38.5122 80.3399C38.5168 80.3105 38.5272 80.2823 38.5429 80.257C38.5585 80.2316 38.5791 80.2097 38.6033 80.1924C38.6275 80.1751 38.6549 80.1628 38.684 80.1562C38.7423 80.143 38.8035 80.1531 38.8543 80.1846C38.9052 80.216 38.9417 80.2661 38.956 80.3242L39.316 81.8162L39.188 81.9082C38.7916 82.1926 38.4443 82.5398 38.16 82.9362L38.068 83.0602L36.524 82.6922C36.3253 83.059 36.1645 83.4449 36.044 83.8442L37.4 84.6762L37.376 84.8282C37.3347 85.0687 37.3133 85.3122 37.312 85.5562C37.3133 85.8016 37.3347 86.0464 37.376 86.2882L37.4 86.4362L36.044 87.2682C36.1637 87.669 36.3246 88.0564 36.524 88.4242L38.068 88.0522L38.16 88.1762C38.2426 88.2947 38.3321 88.4082 38.428 88.5162C38.4673 88.5578 38.4893 88.6129 38.4893 88.6702C38.4893 88.7275 38.4673 88.7826 38.428 88.8242C38.4073 88.847 38.3821 88.8653 38.354 88.8779C38.326 88.8906 38.2956 88.8973 38.2648 88.8976C38.234 88.898 38.2035 88.892 38.1752 88.8801C38.1468 88.8682 38.1212 88.8505 38.1 88.8282ZM47.336 88.9522L46.752 88.8162C46.7228 88.8092 46.6953 88.7965 46.671 88.7788C46.6468 88.7611 46.6262 88.7388 46.6106 88.7131C46.595 88.6875 46.5846 88.659 46.58 88.6293C46.5755 88.5997 46.5768 88.5694 46.584 88.5402C46.5905 88.5112 46.6028 88.4838 46.6201 88.4595C46.6374 88.4353 46.6594 88.4148 46.6847 88.3991C46.71 88.3835 46.7382 88.3731 46.7676 88.3684C46.797 88.3638 46.8271 88.3651 46.856 88.3722L47.108 88.4322C47.309 88.0652 47.4699 87.6777 47.588 87.2762L46.232 86.4442L46.256 86.2962C46.2972 86.0544 46.3186 85.8096 46.32 85.5642C46.3186 85.3202 46.2972 85.0767 46.256 84.8362L46.232 84.6842L47.588 83.8522C47.4692 83.4523 47.3083 83.0662 47.108 82.7002L45.564 83.0682L45.472 82.9442C45.1876 82.5478 44.8404 82.2006 44.444 81.9162L44.32 81.8242L44.688 80.2802C44.322 80.0799 43.9359 79.919 43.536 79.8002L42.7 81.1562L42.552 81.1322C42.0686 81.0522 41.5753 81.0522 41.092 81.1322L40.944 81.1562L40.112 79.8002L39.956 79.8482C39.9002 79.8661 39.8398 79.8614 39.7874 79.8352C39.7351 79.8091 39.6951 79.7635 39.676 79.7082C39.6652 79.6802 39.6602 79.6502 39.6612 79.6202C39.6623 79.5901 39.6693 79.5606 39.682 79.5334C39.6947 79.5061 39.7128 79.4817 39.7351 79.4616C39.7574 79.4415 39.7835 79.426 39.812 79.4162L40.156 79.3122L40.32 79.2722L41.172 80.6602C41.6029 80.5962 42.041 80.5962 42.472 80.6602L43.324 79.2722L43.488 79.3122C44.0399 79.4603 44.5699 79.6809 45.064 79.9682L45.212 80.0522L44.812 81.6522C45.1564 81.9186 45.4655 82.2278 45.732 82.5722L47.332 82.1722L47.416 82.3202C47.7036 82.8136 47.923 83.3438 48.068 83.8962L48.112 84.0602L46.724 84.9122C46.788 85.3432 46.788 85.7812 46.724 86.2122L48.112 87.0642L48.068 87.2282C47.9223 87.7804 47.703 88.3105 47.416 88.8042L47.336 88.9522ZM41.76 87.7802C41.2164 87.7429 40.7057 87.5067 40.3253 87.1168C39.9449 86.7268 39.7214 86.2103 39.6977 85.666C39.6739 85.1217 39.8515 84.5878 40.1965 84.1661C40.5415 83.7445 41.0297 83.4647 41.568 83.3802C41.6 83.3769 41.6325 83.3803 41.6632 83.3902C41.6939 83.4001 41.7222 83.4163 41.7463 83.4377C41.7704 83.4592 41.7897 83.4854 41.8031 83.5148C41.8165 83.5441 41.8236 83.576 41.824 83.6082C41.8243 83.6637 41.804 83.7173 41.767 83.7587C41.7301 83.8001 41.6791 83.8263 41.624 83.8322C41.2866 83.8708 40.9675 84.0062 40.7054 84.222C40.4432 84.4378 40.249 84.7249 40.1464 85.0486C40.0437 85.3723 40.0368 85.7188 40.1266 86.0463C40.2164 86.3738 40.3991 86.6683 40.6525 86.8943C40.906 87.1204 41.2194 87.2682 41.555 87.3201C41.8906 87.372 42.234 87.3257 42.5439 87.1868C42.8538 87.0479 43.1169 86.8223 43.3014 86.5373C43.4859 86.2522 43.5841 85.9198 43.584 85.5802C43.5847 85.2191 43.4729 84.8668 43.264 84.5722C43.2334 84.5268 43.2202 84.4719 43.2269 84.4175C43.2335 84.3632 43.2594 84.313 43.3 84.2762C43.324 84.2546 43.3525 84.2383 43.3833 84.2285C43.4142 84.2187 43.4468 84.2156 43.479 84.2194C43.5112 84.2231 43.5422 84.2337 43.5699 84.2504C43.5977 84.2671 43.6215 84.2896 43.64 84.3162C43.8739 84.6528 44.0099 85.0476 44.0329 85.4569C44.0559 85.8661 43.9649 86.2737 43.7701 86.6343C43.5752 86.9949 43.2842 87.2945 42.9294 87.4996C42.5745 87.7047 42.1697 87.8074 41.76 87.7962V87.7802Z" fill="#E6E6E6"/>
<path d="M100 170.832C142.833 170.832 177.556 168.805 177.556 166.304C177.556 163.804 142.833 161.776 100 161.776C57.167 161.776 22.444 163.804 22.444 166.304C22.444 168.805 57.167 170.832 100 170.832Z" fill="#F5F5F5"/>
<path d="M145.38 58.3602H132.356L123.156 163.66H136.18C138.008 163.625 139.76 162.922 141.105 161.684C142.451 160.446 143.297 158.759 143.484 156.94L151.52 65.0762C151.613 64.2203 151.523 63.3543 151.256 62.5359C150.988 61.7176 150.549 60.9656 149.968 60.3302C149.387 59.6947 148.678 59.1903 147.886 58.8507C147.095 58.511 146.241 58.3438 145.38 58.3602Z" fill="#FF725E"/>
<path d="M142.724 58.3603H98.644C96.816 58.3945 95.0636 59.0964 93.7174 60.3335C92.3712 61.5707 91.5242 63.2576 91.336 65.0763L83.3 156.94C83.2074 157.796 83.2978 158.661 83.5651 159.478C83.8324 160.296 84.2705 161.048 84.8504 161.683C85.4303 162.319 86.1387 162.824 86.9286 163.164C87.7185 163.505 88.5718 163.674 89.432 163.66H133.508C135.334 163.621 137.082 162.917 138.425 161.679C139.768 160.442 140.612 158.757 140.8 156.94L148.836 65.0763C148.929 64.2227 148.84 63.3591 148.574 62.5428C148.308 61.7264 147.871 60.9758 147.294 60.3408C146.716 59.7058 146.009 59.2009 145.222 58.8594C144.434 58.518 143.582 58.3478 142.724 58.3603Z" fill="#FF725E"/>
<path opacity="0.3" d="M142.724 58.3603H98.644C96.816 58.3945 95.0636 59.0964 93.7174 60.3335C92.3712 61.5707 91.5242 63.2576 91.336 65.0763L83.3 156.94C83.2074 157.796 83.2978 158.661 83.5651 159.478C83.8324 160.296 84.2705 161.048 84.8504 161.683C85.4303 162.319 86.1387 162.824 86.9286 163.164C87.7185 163.505 88.5718 163.674 89.432 163.66H133.508C135.334 163.621 137.082 162.917 138.425 161.679C139.768 160.442 140.612 158.757 140.8 156.94L148.836 65.0763C148.929 64.2227 148.84 63.3591 148.574 62.5428C148.308 61.7264 147.871 60.9758 147.294 60.3408C146.716 59.7058 146.009 59.2009 145.222 58.8594C144.434 58.518 143.582 58.3478 142.724 58.3603Z" fill="white"/>
<path opacity="0.4" d="M142.536 60.5121H130.912C130.565 60.515 130.228 60.6217 129.942 60.8185C129.657 61.0153 129.438 61.2932 129.312 61.6161C128.854 62.8025 128.052 63.8253 127.01 64.5542C125.967 65.283 124.732 65.6847 123.46 65.7081H116.604C115.406 65.7323 114.238 65.338 113.3 64.5933C112.361 63.8486 111.712 62.8 111.464 61.6281C111.398 61.3111 111.223 61.0272 110.969 60.8255C110.716 60.6239 110.4 60.5173 110.076 60.5241H98.456C97.2135 60.5461 96.0223 61.0227 95.1075 61.8637C94.1928 62.7048 93.618 63.8519 93.492 65.0881L85.452 156.952C85.3876 157.534 85.448 158.122 85.6292 158.679C85.8103 159.235 86.108 159.747 86.5025 160.179C86.8969 160.611 87.379 160.955 87.9166 161.186C88.4542 161.417 89.0349 161.531 89.62 161.52H133.7C134.943 161.497 136.134 161.02 137.049 160.178C137.963 159.336 138.538 158.189 138.664 156.952L146.7 65.0881C146.766 64.5062 146.706 63.917 146.526 63.3598C146.345 62.8027 146.048 62.2904 145.654 61.8573C145.26 61.4242 144.778 61.0801 144.24 60.8482C143.703 60.6162 143.121 60.5016 142.536 60.5121Z" fill="white"/>
<path d="M131.552 110.428H100.704C100.492 110.432 100.282 110.39 100.087 110.306C99.8922 110.222 99.7176 110.098 99.5746 109.941C99.4316 109.785 99.3235 109.599 99.2576 109.398C99.1916 109.196 99.1692 108.983 99.192 108.772L99.348 107.004C99.3938 106.556 99.6022 106.14 99.9339 105.835C100.266 105.53 100.697 105.357 101.148 105.348H132C132.212 105.345 132.422 105.386 132.617 105.47C132.812 105.554 132.986 105.679 133.129 105.835C133.272 105.992 133.38 106.177 133.446 106.379C133.512 106.58 133.535 106.794 133.512 107.004L133.36 108.772C133.313 109.222 133.103 109.638 132.77 109.943C132.437 110.248 132.004 110.421 131.552 110.428Z" fill="white"/>
<path d="M130.888 118.028H100.036C99.8241 118.032 99.6139 117.99 99.4194 117.906C99.2249 117.822 99.0504 117.698 98.9078 117.541C98.7651 117.385 98.6574 117.199 98.592 116.998C98.5265 116.796 98.5047 116.583 98.528 116.372L98.68 114.604C98.7267 114.156 98.9354 113.741 99.2668 113.436C99.5983 113.131 100.03 112.958 100.48 112.948H131.332C131.544 112.945 131.754 112.987 131.949 113.071C132.144 113.155 132.318 113.279 132.461 113.436C132.604 113.592 132.712 113.777 132.778 113.979C132.844 114.18 132.867 114.394 132.844 114.604L132.688 116.372C132.641 116.82 132.433 117.236 132.101 117.541C131.77 117.846 131.338 118.019 130.888 118.028Z" fill="white"/>
<path opacity="0.1" d="M122.18 62.2323C122.129 62.7301 121.897 63.1919 121.529 63.5303C121.16 63.8687 120.68 64.0601 120.18 64.0683C119.945 64.0725 119.711 64.0266 119.495 63.9336C119.279 63.8406 119.086 63.7027 118.927 63.529C118.769 63.3553 118.649 63.1498 118.576 62.9262C118.503 62.7026 118.478 62.4661 118.504 62.2323C118.555 61.7345 118.787 61.2726 119.155 60.9342C119.524 60.5959 120.004 60.4044 120.504 60.3963C120.739 60.392 120.972 60.4379 121.189 60.5309C121.405 60.6239 121.598 60.7618 121.757 60.9355C121.915 61.1092 122.035 61.3147 122.108 61.5383C122.181 61.7619 122.206 61.9985 122.18 62.2323Z" fill="black"/>
<path opacity="0.1" d="M121.348 62.2321C121.32 62.5039 121.193 62.7559 120.992 62.9408C120.791 63.1257 120.529 63.2308 120.256 63.2361C120.127 63.2386 120 63.2136 119.882 63.1628C119.763 63.1121 119.657 63.0366 119.571 62.9416C119.484 62.8465 119.419 62.7341 119.379 62.6117C119.339 62.4894 119.326 62.36 119.34 62.2321C119.367 61.96 119.494 61.7075 119.695 61.5224C119.896 61.3374 120.159 61.2326 120.432 61.2281C120.56 61.2263 120.688 61.2517 120.806 61.3027C120.924 61.3537 121.029 61.4292 121.116 61.524C121.202 61.6189 121.268 61.7311 121.308 61.8532C121.348 61.9752 121.362 62.1044 121.348 62.2321Z" fill="black"/>
<g opacity="0.8">
<path d="M137.108 65.2961C137.039 65.2971 136.97 65.2834 136.907 65.2559C136.844 65.2285 136.787 65.1879 136.74 65.1368C136.694 65.0858 136.659 65.0255 136.637 64.9598C136.616 64.8942 136.609 64.8248 136.616 64.7561L136.704 63.7721C136.719 63.6267 136.786 63.4918 136.894 63.393C137.002 63.2941 137.142 63.2383 137.288 63.2361C137.357 63.2352 137.425 63.2488 137.488 63.2761C137.551 63.3033 137.607 63.3435 137.654 63.3941C137.7 63.4447 137.735 63.5045 137.757 63.5696C137.779 63.6348 137.787 63.7038 137.78 63.7721L137.692 64.7561C137.677 64.9019 137.61 65.0373 137.502 65.1368C137.395 65.2363 137.254 65.2929 137.108 65.2961Z" fill="white"/>
<path d="M141.412 65.2961C141.343 65.2971 141.274 65.2834 141.211 65.2559C141.148 65.2285 141.091 65.1879 141.044 65.1369C140.998 65.0858 140.963 65.0255 140.941 64.9599C140.92 64.8942 140.913 64.8248 140.92 64.7562L141.124 62.4481C141.139 62.3027 141.206 62.1678 141.314 62.069C141.422 61.9702 141.562 61.9144 141.708 61.9122C141.777 61.9113 141.845 61.9249 141.908 61.9521C141.971 61.9793 142.027 62.0195 142.074 62.0701C142.12 62.1207 142.155 62.1805 142.177 62.2457C142.199 62.3108 142.207 62.3798 142.2 62.4481L141.996 64.7562C141.981 64.9019 141.914 65.0373 141.806 65.1368C141.699 65.2363 141.558 65.293 141.412 65.2961Z" fill="white"/>
<path d="M139.26 65.2961C139.191 65.297 139.122 65.2833 139.059 65.2559C138.996 65.2284 138.939 65.1878 138.892 65.1368C138.846 65.0857 138.811 65.0254 138.789 64.9598C138.768 64.8942 138.761 64.8247 138.768 64.7561L138.912 63.1121C138.927 62.9656 138.995 62.8297 139.103 62.7301C139.211 62.6305 139.353 62.5743 139.5 62.5721C139.569 62.571 139.637 62.5847 139.7 62.6122C139.763 62.6397 139.82 62.6804 139.866 62.7315C139.912 62.7826 139.947 62.843 139.968 62.9087C139.989 62.9743 139.996 63.0436 139.988 63.1121L139.844 64.7561C139.829 64.9019 139.762 65.0373 139.654 65.1367C139.547 65.2362 139.406 65.2929 139.26 65.2961Z" fill="white"/>
</g>
<g opacity="0.8">
<path d="M100.256 65.2961H97.5519C97.513 65.297 97.4744 65.2895 97.4386 65.2741C97.4029 65.2587 97.3708 65.2359 97.3447 65.207C97.3185 65.1782 97.2988 65.1441 97.287 65.1071C97.2751 65.07 97.2714 65.0308 97.2759 64.9921L97.3999 63.5401C97.4087 63.4577 97.4473 63.3813 97.5084 63.3253C97.5696 63.2693 97.6491 63.2376 97.7319 63.2361H100.436C100.475 63.2353 100.514 63.2428 100.549 63.2582C100.585 63.2736 100.617 63.2964 100.643 63.3252C100.669 63.3541 100.689 63.3882 100.701 63.4252C100.713 63.4623 100.717 63.5015 100.712 63.5401L100.584 64.9921C100.577 65.0746 100.539 65.1514 100.479 65.2077C100.418 65.2639 100.339 65.2954 100.256 65.2961Z" fill="white"/>
<path d="M101.508 64.9002C101.469 64.901 101.43 64.8935 101.394 64.8781C101.358 64.8628 101.326 64.84 101.3 64.8113C101.273 64.7825 101.253 64.7485 101.241 64.7114C101.228 64.6744 101.224 64.6351 101.228 64.5962L101.288 63.9322C101.296 63.8495 101.334 63.7726 101.396 63.7164C101.457 63.6603 101.537 63.6288 101.62 63.6282C101.659 63.6274 101.698 63.6349 101.733 63.6503C101.769 63.6657 101.801 63.6885 101.827 63.7173C101.853 63.7462 101.873 63.7803 101.885 63.8173C101.897 63.8544 101.901 63.8936 101.896 63.9322L101.84 64.5962C101.831 64.6787 101.793 64.7551 101.732 64.8111C101.67 64.867 101.591 64.8987 101.508 64.9002Z" fill="white"/>
</g>
<path d="M126.469 98.8004C131.852 93.6476 132.388 85.4731 127.668 80.5421C122.948 75.611 114.757 75.7908 109.375 80.9435C103.992 86.0963 103.455 94.2708 108.176 99.2019C112.896 104.133 121.086 103.953 126.469 98.8004Z" fill="white"/>
<path d="M117.968 89.3804C114.576 89.3804 111.708 90.6724 111.464 93.4764L111.192 96.5924H123.484L123.756 93.4764C124 90.6724 121.364 89.3804 117.968 89.3804Z" fill="#FF725E"/>
<path d="M118.08 88.0963C119.656 88.0963 120.384 86.8203 120.52 85.2443C120.656 83.6683 120.156 82.3923 118.58 82.3923C117.004 82.3923 116.28 83.6723 116.14 85.2443C116 86.8163 116.504 88.0963 118.08 88.0963Z" fill="#FF725E"/>
<path d="M130.144 107.78C129.308 107.78 128.6 108.1 128.544 108.792L128.476 109.564H131.512L131.58 108.792C131.636 108.1 130.984 107.78 130.144 107.78Z" fill="#FF725E"/>
<path d="M130.172 107.464C130.572 107.464 130.74 107.148 130.776 106.76C130.812 106.372 130.684 106.056 130.296 106.056C129.908 106.056 129.728 106.372 129.692 106.76C129.656 107.148 129.784 107.464 130.172 107.464Z" fill="#FF725E"/>
<path d="M120.8 125.628H108.8C108.475 125.634 108.152 125.571 107.853 125.442C107.554 125.313 107.286 125.123 107.066 124.882C106.847 124.642 106.681 124.358 106.58 124.048C106.479 123.739 106.445 123.412 106.48 123.088C106.551 122.4 106.871 121.762 107.381 121.294C107.89 120.827 108.553 120.561 109.244 120.548H121.244C121.569 120.543 121.892 120.607 122.19 120.736C122.489 120.864 122.757 121.055 122.976 121.295C123.196 121.536 123.361 121.82 123.463 122.129C123.564 122.438 123.599 122.765 123.564 123.088C123.494 123.776 123.173 124.415 122.664 124.883C122.155 125.351 121.492 125.616 120.8 125.628Z" fill="#FF725E"/>
<path d="M119.348 153.956H106.504C106.159 153.965 105.817 153.9 105.5 153.766C105.183 153.631 104.898 153.429 104.666 153.174C104.434 152.92 104.259 152.618 104.154 152.29C104.048 151.961 104.015 151.614 104.056 151.272L104.876 141.904C104.949 141.177 105.287 140.503 105.824 140.008C106.362 139.513 107.062 139.233 107.792 139.22H120.64C120.984 139.214 121.325 139.281 121.64 139.417C121.956 139.553 122.239 139.755 122.471 140.009C122.702 140.263 122.877 140.563 122.983 140.89C123.09 141.217 123.126 141.562 123.088 141.904L122.268 151.272C122.193 151.999 121.855 152.673 121.317 153.167C120.779 153.662 120.079 153.942 119.348 153.956Z" fill="#FF725E"/>
<g opacity="0.6">
<path d="M115.388 144.268C115.409 144.064 115.386 143.857 115.322 143.662C115.257 143.467 115.151 143.288 115.012 143.137C114.873 142.986 114.703 142.866 114.514 142.785C114.325 142.704 114.122 142.664 113.916 142.668C113.478 142.675 113.058 142.841 112.735 143.135C112.411 143.43 112.207 143.833 112.16 144.268C112.135 144.512 112.171 144.757 112.265 144.983C112.359 145.209 112.509 145.407 112.7 145.56L112.42 148.788C112.406 148.911 112.419 149.034 112.457 149.151C112.495 149.268 112.557 149.376 112.64 149.467C112.723 149.558 112.825 149.63 112.938 149.678C113.051 149.727 113.173 149.751 113.296 149.748C113.557 149.743 113.806 149.642 113.998 149.465C114.189 149.288 114.31 149.048 114.336 148.788L114.62 145.56C114.834 145.414 115.014 145.222 115.147 144.999C115.279 144.776 115.362 144.526 115.388 144.268Z" fill="white"/>
</g>
<path d="M120.752 141.172H119.096L119.496 136.536C119.566 135.893 119.498 135.242 119.297 134.626C119.096 134.011 118.767 133.446 118.331 132.968C117.894 132.489 117.362 132.11 116.767 131.853C116.173 131.597 115.531 131.469 114.884 131.48C113.509 131.507 112.191 132.036 111.178 132.967C110.166 133.898 109.529 135.168 109.388 136.536L108.988 141.172H107.332L107.732 136.536C107.918 134.72 108.763 133.035 110.106 131.8C111.45 130.564 113.199 129.862 115.024 129.828C115.883 129.813 116.735 129.982 117.524 130.322C118.313 130.662 119.021 131.166 119.6 131.8C120.179 132.434 120.617 133.185 120.884 134.001C121.15 134.818 121.241 135.682 121.148 136.536L120.752 141.172Z" fill="#FF725E"/>
<path d="M130.348 114.88L130.4 114.428C130.411 114.323 130.399 114.217 130.366 114.117C130.333 114.017 130.279 113.926 130.208 113.848C130.137 113.77 130.051 113.708 129.954 113.666C129.858 113.624 129.753 113.603 129.648 113.604C129.424 113.609 129.209 113.695 129.044 113.847C128.879 113.998 128.775 114.205 128.752 114.428L128.712 114.872C128.622 114.875 128.537 114.91 128.471 114.971C128.406 115.032 128.365 115.115 128.356 115.204L128.252 116.404C128.247 116.446 128.251 116.489 128.264 116.529C128.276 116.569 128.298 116.606 128.326 116.637C128.355 116.668 128.39 116.693 128.429 116.709C128.468 116.726 128.51 116.734 128.552 116.732H130.2C130.289 116.731 130.375 116.696 130.44 116.636C130.506 116.575 130.547 116.493 130.556 116.404L130.66 115.204C130.663 115.162 130.658 115.119 130.644 115.079C130.629 115.039 130.607 115.002 130.577 114.972C130.548 114.941 130.512 114.917 130.472 114.901C130.433 114.885 130.391 114.878 130.348 114.88ZM129.6 113.816C129.679 113.815 129.758 113.831 129.831 113.862C129.904 113.894 129.969 113.94 130.023 113.999C130.076 114.058 130.117 114.127 130.142 114.202C130.167 114.277 130.176 114.357 130.168 114.436L130.128 114.88H128.888L128.928 114.436C128.945 114.269 129.023 114.113 129.147 113.999C129.271 113.885 129.432 113.82 129.6 113.816Z" fill="#FF725E"/>
<path d="M105.54 115.356L104.964 115.236C104.948 115.233 104.933 115.226 104.92 115.216C104.907 115.206 104.896 115.193 104.889 115.179C104.882 115.164 104.878 115.148 104.878 115.131C104.877 115.115 104.881 115.099 104.888 115.084L105.128 114.516C105.138 114.492 105.139 114.464 105.131 114.439C105.122 114.414 105.106 114.392 105.083 114.379C105.061 114.365 105.034 114.359 105.008 114.363C104.981 114.367 104.957 114.38 104.94 114.4L104.504 114.848C104.494 114.861 104.48 114.872 104.465 114.88C104.45 114.887 104.433 114.891 104.416 114.891C104.399 114.891 104.382 114.887 104.367 114.88C104.352 114.872 104.338 114.861 104.328 114.848L103.972 114.4C103.896 114.304 103.732 114.4 103.76 114.516L103.9 115.084C103.904 115.101 103.905 115.118 103.902 115.135C103.899 115.152 103.893 115.168 103.883 115.182C103.874 115.196 103.862 115.208 103.847 115.218C103.833 115.227 103.817 115.233 103.8 115.236L103.204 115.356C103.076 115.38 103.06 115.56 103.184 115.584L103.76 115.704C103.776 115.707 103.791 115.714 103.804 115.724C103.817 115.734 103.828 115.747 103.835 115.762C103.842 115.777 103.845 115.793 103.845 115.809C103.844 115.826 103.84 115.842 103.832 115.856L103.6 116.428C103.59 116.453 103.589 116.48 103.597 116.505C103.605 116.53 103.622 116.552 103.645 116.566C103.667 116.58 103.694 116.585 103.72 116.581C103.747 116.577 103.771 116.564 103.788 116.544L104.224 116.096C104.235 116.084 104.249 116.074 104.264 116.068C104.279 116.061 104.295 116.058 104.312 116.058C104.329 116.058 104.345 116.061 104.36 116.068C104.375 116.074 104.389 116.084 104.4 116.096L104.756 116.544C104.832 116.64 104.996 116.544 104.964 116.428L104.824 115.86C104.818 115.826 104.826 115.791 104.845 115.763C104.865 115.735 104.894 115.715 104.928 115.708L105.524 115.588C105.648 115.56 105.664 115.38 105.54 115.356Z" fill="#263238"/>
<path d="M109.324 115.356L108.748 115.236C108.732 115.233 108.717 115.226 108.704 115.216C108.691 115.206 108.68 115.193 108.673 115.179C108.666 115.164 108.662 115.148 108.662 115.131C108.661 115.115 108.665 115.099 108.672 115.084L108.912 114.516C108.922 114.492 108.923 114.464 108.915 114.439C108.907 114.414 108.89 114.392 108.867 114.379C108.845 114.365 108.818 114.359 108.792 114.363C108.765 114.367 108.741 114.38 108.724 114.4L108.288 114.848C108.278 114.861 108.264 114.872 108.249 114.88C108.234 114.887 108.217 114.891 108.2 114.891C108.183 114.891 108.166 114.887 108.151 114.88C108.136 114.872 108.123 114.861 108.112 114.848L107.756 114.4C107.68 114.304 107.516 114.4 107.548 114.516L107.688 115.084C107.691 115.101 107.692 115.118 107.688 115.135C107.685 115.152 107.678 115.168 107.668 115.182C107.659 115.196 107.646 115.208 107.632 115.218C107.617 115.227 107.601 115.233 107.584 115.236L106.988 115.356C106.86 115.38 106.844 115.56 106.968 115.584L107.544 115.704C107.56 115.707 107.575 115.714 107.588 115.724C107.601 115.734 107.612 115.747 107.619 115.762C107.626 115.776 107.63 115.792 107.63 115.809C107.631 115.825 107.627 115.841 107.62 115.856L107.38 116.424C107.37 116.449 107.369 116.476 107.377 116.501C107.386 116.526 107.402 116.548 107.425 116.562C107.448 116.576 107.474 116.581 107.5 116.577C107.527 116.573 107.551 116.56 107.568 116.54L108.004 116.092C108.015 116.08 108.029 116.07 108.044 116.064C108.059 116.057 108.076 116.054 108.092 116.054C108.109 116.054 108.125 116.057 108.14 116.064C108.155 116.07 108.169 116.08 108.18 116.092L108.536 116.54C108.612 116.636 108.776 116.54 108.748 116.424L108.608 115.856C108.605 115.84 108.604 115.822 108.607 115.806C108.611 115.789 108.617 115.773 108.626 115.759C108.636 115.745 108.648 115.733 108.662 115.724C108.676 115.714 108.691 115.707 108.708 115.704L109.304 115.584C109.432 115.56 109.448 115.38 109.324 115.356Z" fill="#263238"/>
<path d="M113.108 115.356L112.536 115.236C112.52 115.234 112.504 115.227 112.49 115.218C112.477 115.208 112.466 115.195 112.459 115.18C112.451 115.165 112.447 115.149 112.448 115.132C112.448 115.115 112.452 115.099 112.46 115.084L112.7 114.516C112.715 114.491 112.72 114.46 112.713 114.431C112.706 114.403 112.687 114.378 112.662 114.362C112.637 114.347 112.606 114.342 112.577 114.349C112.548 114.357 112.523 114.375 112.508 114.4L112.076 114.848C112.065 114.862 112.051 114.873 112.036 114.88C112.02 114.887 112.003 114.891 111.986 114.891C111.969 114.891 111.952 114.887 111.936 114.88C111.921 114.873 111.907 114.862 111.896 114.848L111.54 114.4C111.464 114.304 111.3 114.4 111.332 114.516L111.472 115.084C111.475 115.101 111.476 115.118 111.473 115.135C111.469 115.151 111.463 115.167 111.454 115.181C111.444 115.195 111.432 115.207 111.418 115.217C111.404 115.226 111.389 115.233 111.372 115.236L110.776 115.356C110.648 115.38 110.632 115.56 110.756 115.584L111.328 115.704C111.344 115.708 111.359 115.715 111.372 115.724C111.385 115.734 111.396 115.747 111.403 115.762C111.41 115.777 111.414 115.793 111.414 115.809C111.415 115.825 111.411 115.842 111.404 115.856L111.164 116.424C111.149 116.45 111.144 116.48 111.151 116.509C111.158 116.538 111.177 116.563 111.202 116.578C111.227 116.594 111.258 116.598 111.287 116.591C111.316 116.584 111.341 116.566 111.356 116.54L111.788 116.092C111.799 116.08 111.813 116.071 111.828 116.064C111.843 116.057 111.859 116.054 111.876 116.054C111.893 116.054 111.909 116.057 111.924 116.064C111.939 116.071 111.953 116.08 111.964 116.092L112.324 116.54C112.4 116.636 112.564 116.54 112.532 116.424L112.392 115.856C112.386 115.823 112.393 115.789 112.412 115.76C112.43 115.732 112.459 115.712 112.492 115.704L113.088 115.584C113.2 115.56 113.232 115.38 113.108 115.356Z" fill="#263238"/>
<path d="M116.896 115.356L116.32 115.236C116.304 115.233 116.289 115.226 116.276 115.216C116.263 115.206 116.252 115.193 116.245 115.179C116.238 115.164 116.234 115.148 116.234 115.131C116.233 115.115 116.237 115.099 116.244 115.084L116.484 114.516C116.494 114.492 116.495 114.464 116.487 114.439C116.478 114.414 116.462 114.392 116.439 114.379C116.417 114.365 116.39 114.359 116.364 114.363C116.337 114.367 116.313 114.38 116.296 114.4L115.86 114.848C115.849 114.861 115.836 114.872 115.821 114.88C115.806 114.887 115.789 114.891 115.772 114.891C115.755 114.891 115.738 114.887 115.723 114.88C115.708 114.872 115.694 114.861 115.684 114.848L115.328 114.4C115.252 114.304 115.088 114.4 115.116 114.516L115.256 115.084C115.26 115.101 115.261 115.118 115.258 115.135C115.255 115.152 115.249 115.168 115.239 115.182C115.23 115.196 115.218 115.208 115.203 115.218C115.189 115.227 115.173 115.233 115.156 115.236L114.56 115.356C114.432 115.38 114.416 115.56 114.56 115.584L115.136 115.704C115.152 115.707 115.167 115.714 115.18 115.724C115.193 115.734 115.204 115.747 115.211 115.762C115.218 115.777 115.221 115.793 115.221 115.809C115.22 115.826 115.216 115.842 115.208 115.856L114.972 116.424C114.962 116.449 114.961 116.476 114.969 116.501C114.977 116.526 114.994 116.548 115.017 116.562C115.039 116.576 115.066 116.581 115.092 116.577C115.119 116.573 115.143 116.56 115.16 116.54L115.596 116.092C115.607 116.08 115.621 116.07 115.636 116.064C115.651 116.057 115.667 116.054 115.684 116.054C115.7 116.054 115.717 116.057 115.732 116.064C115.747 116.07 115.761 116.08 115.772 116.092L116.128 116.54C116.204 116.636 116.368 116.54 116.336 116.424L116.196 115.856C116.19 115.822 116.198 115.787 116.217 115.759C116.237 115.731 116.266 115.711 116.3 115.704L116.896 115.584C117.004 115.56 117.02 115.38 116.896 115.356Z" fill="#263238"/>
<path d="M120.68 115.356L120.104 115.236C120.088 115.233 120.073 115.226 120.06 115.216C120.047 115.206 120.036 115.193 120.029 115.179C120.022 115.164 120.018 115.148 120.018 115.131C120.017 115.115 120.021 115.099 120.028 115.084L120.268 114.516C120.278 114.492 120.279 114.464 120.271 114.439C120.262 114.414 120.246 114.392 120.223 114.379C120.201 114.365 120.174 114.359 120.148 114.363C120.121 114.367 120.097 114.38 120.08 114.4L119.644 114.848C119.634 114.861 119.62 114.872 119.605 114.88C119.59 114.887 119.573 114.891 119.556 114.891C119.539 114.891 119.522 114.887 119.507 114.88C119.492 114.872 119.478 114.861 119.468 114.848L119.112 114.4C119.036 114.304 118.872 114.4 118.904 114.516L119.044 115.084C119.047 115.101 119.048 115.118 119.044 115.135C119.041 115.152 119.034 115.168 119.024 115.182C119.015 115.196 119.002 115.208 118.988 115.218C118.973 115.227 118.957 115.233 118.94 115.236L118.344 115.356C118.216 115.38 118.2 115.56 118.324 115.584L118.9 115.704C118.916 115.707 118.931 115.714 118.944 115.724C118.957 115.734 118.968 115.747 118.975 115.762C118.982 115.776 118.986 115.792 118.986 115.809C118.987 115.825 118.983 115.841 118.976 115.856L118.736 116.424C118.726 116.449 118.725 116.476 118.733 116.501C118.741 116.526 118.758 116.548 118.781 116.562C118.803 116.576 118.83 116.581 118.856 116.577C118.883 116.573 118.907 116.56 118.924 116.54L119.36 116.092C119.371 116.08 119.385 116.07 119.4 116.064C119.415 116.057 119.431 116.054 119.448 116.054C119.465 116.054 119.481 116.057 119.496 116.064C119.511 116.07 119.525 116.08 119.536 116.092L119.892 116.54C119.968 116.636 120.132 116.54 120.104 116.424L119.964 115.856C119.96 115.84 119.96 115.822 119.963 115.806C119.967 115.789 119.973 115.773 119.982 115.759C119.992 115.745 120.004 115.733 120.018 115.724C120.032 115.714 120.047 115.707 120.064 115.704L120.66 115.584C120.8 115.56 120.8 115.38 120.68 115.356Z" fill="#263238"/>
<path d="M124.464 115.356L123.888 115.236C123.872 115.233 123.857 115.226 123.844 115.216C123.831 115.206 123.82 115.193 123.813 115.179C123.806 115.164 123.803 115.148 123.803 115.131C123.804 115.115 123.808 115.099 123.816 115.084L124.056 114.516C124.064 114.504 124.069 114.49 124.071 114.475C124.073 114.461 124.072 114.446 124.069 114.431C124.065 114.417 124.059 114.404 124.05 114.392C124.042 114.38 124.031 114.37 124.018 114.362C124.005 114.355 123.991 114.35 123.977 114.347C123.962 114.345 123.947 114.346 123.933 114.349C123.919 114.353 123.905 114.359 123.893 114.368C123.882 114.377 123.872 114.388 123.864 114.4L123.432 114.848C123.421 114.862 123.407 114.873 123.392 114.88C123.376 114.887 123.359 114.891 123.342 114.891C123.325 114.891 123.308 114.887 123.292 114.88C123.277 114.873 123.263 114.862 123.252 114.848L122.896 114.4C122.82 114.304 122.656 114.4 122.688 114.516L122.828 115.084C122.831 115.101 122.832 115.118 122.829 115.135C122.825 115.151 122.819 115.167 122.81 115.181C122.8 115.195 122.788 115.207 122.774 115.217C122.76 115.226 122.745 115.233 122.728 115.236L122.132 115.356C122.004 115.38 121.988 115.56 122.112 115.584L122.684 115.704C122.7 115.708 122.715 115.715 122.728 115.724C122.741 115.734 122.752 115.747 122.759 115.762C122.766 115.776 122.77 115.793 122.77 115.809C122.771 115.825 122.767 115.842 122.76 115.856L122.52 116.424C122.505 116.45 122.5 116.48 122.507 116.509C122.514 116.538 122.532 116.563 122.558 116.578C122.583 116.594 122.614 116.598 122.643 116.591C122.672 116.584 122.697 116.566 122.712 116.54L123.144 116.092C123.155 116.08 123.169 116.071 123.184 116.064C123.199 116.057 123.215 116.054 123.232 116.054C123.248 116.054 123.265 116.057 123.28 116.064C123.295 116.071 123.309 116.08 123.32 116.092L123.676 116.54C123.695 116.561 123.72 116.575 123.747 116.58C123.775 116.585 123.804 116.58 123.828 116.567C123.853 116.553 123.872 116.532 123.883 116.506C123.894 116.48 123.896 116.451 123.888 116.424L123.748 115.856C123.742 115.823 123.749 115.789 123.768 115.76C123.786 115.732 123.815 115.712 123.848 115.704L124.444 115.584C124.572 115.56 124.588 115.38 124.464 115.356Z" fill="#263238"/>
<path d="M115.34 107.072H108.236C108.018 107.076 107.809 107.16 107.648 107.307C107.488 107.454 107.386 107.655 107.364 107.872C107.353 107.974 107.363 108.078 107.395 108.175C107.427 108.273 107.479 108.363 107.548 108.439C107.618 108.514 107.702 108.574 107.797 108.615C107.891 108.655 107.993 108.675 108.096 108.672H115.2C115.418 108.669 115.627 108.585 115.788 108.438C115.948 108.29 116.05 108.089 116.072 107.872C116.083 107.77 116.072 107.667 116.04 107.57C116.008 107.473 115.955 107.383 115.886 107.308C115.817 107.232 115.732 107.172 115.638 107.131C115.544 107.091 115.442 107.071 115.34 107.072Z" fill="#263238"/>
<path d="M122.556 107.072H118.432C118.214 107.076 118.006 107.16 117.846 107.307C117.686 107.455 117.586 107.656 117.564 107.872C117.553 107.974 117.563 108.077 117.595 108.174C117.626 108.272 117.678 108.361 117.747 108.437C117.816 108.513 117.9 108.573 117.994 108.613C118.088 108.654 118.19 108.674 118.292 108.672H122.4C122.618 108.668 122.826 108.585 122.986 108.437C123.146 108.29 123.247 108.089 123.268 107.872C123.279 107.772 123.269 107.67 123.239 107.574C123.208 107.478 123.157 107.389 123.09 107.314C123.023 107.238 122.941 107.178 122.849 107.136C122.757 107.095 122.657 107.073 122.556 107.072Z" fill="#263238"/>
<path d="M128 143.332C125.489 144.288 123.222 145.791 121.364 147.732C120.236 146.856 118.89 146.303 117.472 146.132L117.284 146.104L117.204 147.048L117.308 147.088C118.863 147.661 120.179 148.744 121.04 150.16L121.176 150.384L121.324 150.144C122.98 147.5 125.318 145.35 128.092 143.92L128.184 143.872L128.236 143.248L128 143.332Z" fill="#263238"/>
<path opacity="0.2" d="M92.256 64.5764C91.7463 65.4665 91.4326 66.4553 91.336 67.4764L85.38 135.564H103.812L107.516 121.368L106.296 107.168L110 92.9724L108.8 78.7764L112.504 64.5764H92.256Z" fill="black"/>
<path d="M107.18 74.7764L110.884 60.5764H64.272L60.572 74.7764L61.788 88.9724L58.088 103.168L59.304 117.368L55.604 131.564H102.212L105.916 117.368L104.696 103.168L108.4 88.9724L107.18 74.7764Z" fill="#FF725E"/>
<path opacity="0.7" d="M107.18 74.7764L110.884 60.5764H64.272L60.572 74.7764L61.788 88.9724L58.088 103.168L59.304 117.368L55.604 131.564H102.212L105.916 117.368L104.696 103.168L108.4 88.9724L107.18 74.7764Z" fill="white"/>
<path opacity="0.5" d="M107.18 74.7764H60.572L64.272 60.5764H110.884L107.18 74.7764Z" fill="white"/>
<path opacity="0.5" d="M104.696 103.168H58.088L61.788 88.9722H108.4L104.696 103.168Z" fill="white"/>
<path opacity="0.5" d="M102.212 131.564H55.6L59.304 117.368H105.916L102.212 131.564Z" fill="white"/>
<path opacity="0.2" d="M100.944 80.7082C100.466 80.8464 99.9698 80.9138 99.472 80.9082C98.797 80.9381 98.1251 80.8007 97.516 80.5082C97.4058 80.4429 97.2801 80.4084 97.152 80.4082C97.0345 80.4098 96.9192 80.44 96.816 80.4962H96.792C96.6134 80.5965 96.4224 80.6731 96.224 80.7242C95.7764 80.8424 95.315 80.9002 94.852 80.8962C94.712 80.8962 94.576 80.8962 94.452 80.8962C94.0928 80.8731 93.7373 80.8101 93.392 80.7082C93.3412 80.6931 93.2889 80.6837 93.236 80.6802C93.148 80.673 93.0595 80.6841 92.9761 80.7128C92.8926 80.7415 92.8159 80.7871 92.7509 80.8469C92.6859 80.9066 92.634 80.9791 92.5984 81.0599C92.5628 81.1407 92.5443 81.2279 92.544 81.3162V81.7482H74.4C74.0667 81.7482 73.7366 81.8139 73.4286 81.9416C73.1207 82.0693 72.8409 82.2565 72.6054 82.4924C72.3698 82.7283 72.1831 83.0083 72.0559 83.3165C71.9287 83.6246 71.8635 83.9548 71.864 84.2882V86.8442C71.863 87.1779 71.9278 87.5085 72.0548 87.8171C72.1817 88.1258 72.3684 88.4063 72.604 88.6426C72.8396 88.8789 73.1195 89.0665 73.4277 89.1944C73.7359 89.3223 74.0663 89.3882 74.4 89.3882H95.012H95.148C95.368 89.5722 95.6 89.7562 95.848 89.9442C96.096 90.1322 96.448 90.3922 96.772 90.6242C96.8826 90.7042 97.0156 90.7473 97.152 90.7473C97.2885 90.7473 97.4215 90.7042 97.532 90.6242C100.124 88.7442 101.788 87.4482 101.788 83.8882V81.3282C101.789 81.2258 101.766 81.1246 101.72 81.033C101.675 80.9414 101.608 80.862 101.525 80.8013C101.443 80.7407 101.347 80.7007 101.246 80.6845C101.145 80.6683 101.041 80.6764 100.944 80.7082Z" fill="black"/>
<path d="M94.616 80.3442H74.008C72.6052 80.3442 71.468 81.4814 71.468 82.8842V85.4402C71.468 86.843 72.6052 87.9802 74.008 87.9802H94.616C96.0188 87.9802 97.156 86.843 97.156 85.4402V82.8842C97.156 81.4814 96.0188 80.3442 94.616 80.3442Z" fill="#FF725E"/>
<path d="M99.076 79.5002C98.4011 79.5291 97.7294 79.3918 97.12 79.1002C97.0117 79.0337 96.8871 78.9985 96.76 78.9985C96.6329 78.9985 96.5083 79.0337 96.4 79.1002C95.7894 79.3922 95.1163 79.5296 94.44 79.5002C93.9422 79.5055 93.4463 79.4382 92.968 79.3002C92.8717 79.2678 92.769 79.2588 92.6684 79.274C92.5679 79.2892 92.4724 79.3281 92.3899 79.3876C92.3074 79.447 92.2403 79.5252 92.1941 79.6158C92.1478 79.7063 92.1238 79.8066 92.124 79.9082V82.4682C92.124 86.0322 93.788 87.3282 96.38 89.2082C96.4906 89.2883 96.6236 89.3314 96.76 89.3314C96.8965 89.3314 97.0295 89.2883 97.14 89.2082C99.732 87.3282 101.396 86.0322 101.396 82.4682V79.9082C101.396 79.8064 101.371 79.7061 101.324 79.6156C101.278 79.5252 101.21 79.447 101.127 79.3877C101.045 79.3284 100.949 79.2895 100.848 79.2743C100.747 79.2591 100.645 79.268 100.548 79.3002C100.07 79.4384 99.5738 79.5058 99.076 79.5002Z" fill="#FF725E"/>
<path opacity="0.3" d="M99.076 79.5002C98.4011 79.5291 97.7294 79.3918 97.12 79.1002C97.0117 79.0337 96.8871 78.9985 96.76 78.9985C96.6329 78.9985 96.5083 79.0337 96.4 79.1002C95.7894 79.3922 95.1163 79.5296 94.44 79.5002C93.9422 79.5055 93.4463 79.4382 92.968 79.3002C92.8717 79.2678 92.769 79.2588 92.6684 79.274C92.5679 79.2892 92.4724 79.3281 92.3899 79.3876C92.3074 79.447 92.2403 79.5252 92.1941 79.6158C92.1478 79.7063 92.1238 79.8066 92.124 79.9082V82.4682C92.124 86.0322 93.788 87.3282 96.38 89.2082C96.4906 89.2883 96.6236 89.3314 96.76 89.3314C96.8965 89.3314 97.0295 89.2883 97.14 89.2082C99.732 87.3282 101.396 86.0322 101.396 82.4682V79.9082C101.396 79.8064 101.371 79.7061 101.324 79.6156C101.278 79.5252 101.21 79.447 101.127 79.3877C101.045 79.3284 100.949 79.2895 100.848 79.2743C100.747 79.2591 100.645 79.268 100.548 79.3002C100.07 79.4384 99.5738 79.5058 99.076 79.5002Z" fill="white"/>
<path opacity="0.2" d="M96.4 79.0924C95.7894 79.3844 95.1163 79.5218 94.44 79.4924C93.9423 79.4974 93.4464 79.4301 92.968 79.2924C92.8717 79.26 92.769 79.251 92.6684 79.2662C92.5679 79.2814 92.4724 79.3203 92.3899 79.3798C92.3074 79.4392 92.2403 79.5174 92.1941 79.6079C92.1478 79.6985 92.1238 79.7987 92.124 79.9004V82.4604C92.124 86.0244 93.788 87.3204 96.38 89.2004C96.4961 89.2846 96.6367 89.3282 96.78 89.3244V78.9884C96.646 78.9858 96.514 79.0219 96.4 79.0924Z" fill="white"/>
<path d="M100.476 81.7724C98.9167 82.3833 97.5281 83.3617 96.428 84.6244C95.6609 84.0589 94.7616 83.6995 93.816 83.5804H93.692V84.1924L93.76 84.2164C94.8117 84.5959 95.7181 85.2953 96.352 86.2164L96.452 86.3604L96.536 86.2044C97.4556 84.4955 98.856 83.0936 100.564 82.1724L100.624 82.1444V81.7444L100.476 81.7724Z" fill="#263238"/>
<path d="M110.06 64.5723H108.292C108.065 64.5765 107.839 64.5322 107.63 64.4423C107.421 64.3524 107.233 64.2189 107.08 64.0509C106.927 63.8828 106.811 63.6839 106.741 63.4676C106.67 63.2513 106.647 63.0224 106.672 62.7963L106.828 61.0283C106.876 60.5475 107.099 60.101 107.454 59.7736C107.81 59.4462 108.273 59.2607 108.756 59.2523H110.524C110.752 59.2475 110.978 59.2914 111.187 59.3811C111.397 59.4707 111.585 59.6041 111.739 59.7722C111.892 59.9404 112.008 60.1394 112.079 60.356C112.15 60.5727 112.173 60.8019 112.148 61.0283L111.992 62.7963C111.938 63.2755 111.713 63.7191 111.358 64.0455C111.003 64.3718 110.542 64.5589 110.06 64.5723Z" fill="#FF725E"/>
<path d="M110.796 61.0243L110.412 60.6003L109.444 61.4883L108.636 60.6003L108.176 61.0243L108.988 61.9123L108.024 62.8003L108.408 63.2203L109.372 62.3323L110.184 63.2203L110.64 62.8003L109.828 61.9123L110.796 61.0243Z" fill="white"/>
</svg>
