<svg width="200" height="201" viewBox="0 0 200 201" fill="none" xmlns="http://www.w3.org/2000/svg">
<path d="M200 149.854H0V149.949H200V149.854Z" fill="#EBEBEB"/>
<path d="M179.96 155.906H166.712V156H179.96V155.906Z" fill="#EBEBEB"/>
<path d="M132.488 156.929H129.012V157.023H132.488V156.929Z" fill="#EBEBEB"/>
<path d="M166.312 152.415H158.636V152.509H166.312V152.415Z" fill="#EBEBEB"/>
<path d="M38.2599 153.047H20.9839V153.141H38.2599V153.047Z" fill="#EBEBEB"/>
<path d="M44.356 153.047H41.824V153.141H44.356V153.047Z" fill="#EBEBEB"/>
<path d="M90.0599 154.634H52.5879V154.728H90.0599V154.634Z" fill="#EBEBEB"/>
<path d="M94.7999 133.079H17.5639C16.9589 133.078 16.379 132.852 15.9515 132.449C15.524 132.046 15.2839 131.501 15.2839 130.932V28.8434C15.2892 28.2777 15.5316 27.7369 15.9585 27.3383C16.3854 26.9397 16.9623 26.7156 17.5639 26.7146H94.7999C95.4057 26.7146 95.9866 26.9409 96.415 27.3436C96.8433 27.7464 97.0839 28.2926 97.0839 28.8622V130.932C97.0839 131.501 96.8433 132.047 96.415 132.45C95.9866 132.853 95.4057 133.079 94.7999 133.079ZM17.5639 26.7898C16.9854 26.7908 16.4309 27.0076 16.0222 27.3926C15.6135 27.7776 15.3839 28.2994 15.3839 28.8434V130.932C15.3839 131.476 15.6135 131.997 16.0222 132.382C16.4309 132.767 16.9854 132.984 17.5639 132.985H94.7999C95.3788 132.984 95.9337 132.768 96.3431 132.383C96.7524 131.998 96.9829 131.476 96.9839 130.932V28.8434C96.9829 28.2991 96.7524 27.7773 96.3431 27.3924C95.9337 27.0075 95.3788 26.7908 94.7999 26.7898H17.5639Z" fill="#EBEBEB"/>
<path d="M181.324 133.079H104.084C103.479 133.078 102.898 132.852 102.47 132.449C102.042 132.047 101.801 131.501 101.8 130.932V28.8434C101.806 28.2774 102.05 27.7365 102.477 27.338C102.905 26.9396 103.482 26.7156 104.084 26.7146H181.324C181.925 26.7166 182.501 26.9411 182.927 27.3396C183.353 27.7381 183.595 28.2784 183.6 28.8434V130.932C183.6 131.5 183.361 132.045 182.934 132.448C182.507 132.85 181.928 133.077 181.324 133.079ZM104.084 26.7898C103.505 26.7908 102.95 27.0075 102.541 27.3924C102.132 27.7773 101.901 28.2991 101.9 28.8434V130.932C101.901 131.476 102.132 131.998 102.541 132.383C102.95 132.768 103.505 132.984 104.084 132.985H181.324C181.903 132.984 182.458 132.768 182.867 132.383C183.277 131.998 183.507 131.476 183.508 130.932V28.8434C183.507 28.2991 183.277 27.7773 182.867 27.3924C182.458 27.0075 181.903 26.7908 181.324 26.7898H104.084Z" fill="#EBEBEB"/>
<path d="M87.38 113.548H36.812V116.903H87.38V113.548Z" fill="#EBEBEB"/>
<path d="M87.3798 113.548H65.3918V116.903H87.3798V113.548Z" fill="#E0E0E0"/>
<path d="M44.284 116.903H36.812V149.855H44.284V116.903Z" fill="#EBEBEB"/>
<path d="M44.284 120.303L36.812 117.911V116.903H44.284V120.303Z" fill="#E0E0E0"/>
<path d="M87.38 116.903H79.908V149.855H87.38V116.903Z" fill="#E0E0E0"/>
<path d="M72.8638 116.903H65.3918V149.855H72.8638V116.903Z" fill="#EBEBEB"/>
<path d="M72.8598 120.303L65.3918 117.911V116.903H72.8598V120.303Z" fill="#E0E0E0"/>
<path d="M58.7999 116.903H51.3279V149.855H58.7999V116.903Z" fill="#E0E0E0"/>
<path d="M92.1319 38.8142H28.3999V89.8414H92.1319V38.8142Z" fill="#EBEBEB"/>
<path d="M92.132 89.8374H92.844V38.8102H92.132V89.8374Z" fill="#E0E0E0"/>
<path d="M89.7361 87.581V41.0671H30.8041V87.581H89.7361Z" fill="#F5F5F5"/>
<path d="M59.5559 80.5218C63.1559 69.2384 64.1559 52.5955 71.8119 54.8897C79.4679 57.184 69.4399 81.7931 69.4399 81.7931L59.5559 80.5218Z" fill="white"/>
<path d="M65.74 81.0811C62.076 64.7277 63 43.0185 51.616 43.515C40.232 44.0114 51.616 81.7919 51.616 81.7919L65.74 81.0811Z" fill="white"/>
<path d="M73.7841 79.2468H48.8601C48.3515 79.2314 47.8568 79.4046 47.4827 79.7289C47.1086 80.0532 46.885 80.5028 46.8601 80.9807C46.3521 91.7751 48.2321 102.795 51.7321 113.548H70.8161C74.3161 102.776 76.1961 91.7751 75.6881 80.9807C75.6686 80.5169 75.4599 80.0781 75.1053 79.7552C74.7508 79.4324 74.2776 79.2503 73.7841 79.2468Z" fill="#EBEBEB"/>
<path d="M130.48 44.5046H129.076V149.854H130.48V44.5046Z" fill="#E0E0E0"/>
<path d="M163.476 44.5046H162.072V149.854H163.476V44.5046Z" fill="#E0E0E0"/>
<path d="M120.524 44.5046H119.12V149.854H120.524V44.5046Z" fill="#EBEBEB"/>
<path d="M153.52 44.5046H152.116V149.854H153.52V44.5046Z" fill="#EBEBEB"/>
<path d="M163.476 43.783H119.12V45.2235H163.476V43.783Z" fill="#EBEBEB"/>
<path d="M163.476 69.5801H119.12V71.0206H163.476V69.5801Z" fill="#EBEBEB"/>
<path d="M163.476 95.3774H119.12V96.818H163.476V95.3774Z" fill="#EBEBEB"/>
<path d="M163.476 121.175H119.12V122.616H163.476V121.175Z" fill="#EBEBEB"/>
<path d="M163.476 146.974H119.12V148.414H163.476V146.974Z" fill="#EBEBEB"/>
<path d="M163.476 43.783H153.52V45.2235H163.476V43.783Z" fill="#E0E0E0"/>
<path d="M163.476 69.5801H153.52V71.0206H163.476V69.5801Z" fill="#E0E0E0"/>
<path d="M163.476 95.3774H153.52V96.818H163.476V95.3774Z" fill="#E0E0E0"/>
<path d="M163.476 121.175H153.52V122.616H163.476V121.175Z" fill="#E0E0E0"/>
<path d="M163.476 146.974H153.52V148.414H163.476V146.974Z" fill="#E0E0E0"/>
<path d="M137.012 52.5571V50.5261H131.68V52.5571C131.68 53.1939 131.411 53.8046 130.933 54.2552C130.454 54.7058 129.805 54.9595 129.128 54.9605C128.451 54.9605 127.801 55.2132 127.322 55.6631C126.843 56.113 126.573 56.7233 126.572 57.3601V69.5913H142.124V57.3601C142.123 56.7233 141.853 56.113 141.374 55.6631C140.895 55.2132 140.245 54.9605 139.568 54.9605C138.89 54.9605 138.24 54.7073 137.761 54.2566C137.281 53.8058 137.012 53.1945 137.012 52.5571Z" fill="#F0F0F0"/>
<path d="M148.048 86.99H124.68V95.3811H148.048V86.99Z" fill="#F0F0F0"/>
<path d="M148.048 95.3774H152.116V86.9864H148.048V95.3774Z" fill="#E6E6E6"/>
<path d="M148.048 91.6465H152.116V90.7212H148.048V91.6465Z" fill="#EBEBEB"/>
<path d="M148.048 90.7212H124.68V91.6464H148.048V90.7212Z" fill="#F5F5F5"/>
<path d="M141.788 132.139H123.536V146.973H141.788V132.139Z" fill="#F0F0F0"/>
<path d="M141.788 146.977H144.964V132.143H141.788V146.977Z" fill="#E6E6E6"/>
<path d="M141.788 140.376H144.964V138.74H141.788V140.376Z" fill="#EBEBEB"/>
<path d="M141.788 138.74H123.536V140.376H141.788V138.74Z" fill="#F5F5F5"/>
<path d="M141.788 137.592H144.964V137.009H141.788V137.592Z" fill="#EBEBEB"/>
<path d="M141.788 137.01H123.536V137.593H141.788V137.01Z" fill="#F5F5F5"/>
<path d="M127.984 106.094H124.68V121.176H127.984V106.094Z" fill="#F0F0F0"/>
<path d="M127.984 111.468H124.68V115.801H127.984V111.468Z" fill="#FAFAFA"/>
<path d="M127.984 121.18H139.224V106.098H127.984V121.18Z" fill="#E6E6E6"/>
<path d="M133.088 104.146H129.356V121.176H133.088V104.146Z" fill="#EBEBEB"/>
<path d="M133.088 109.558H129.356V112.179H133.088V109.558Z" fill="#FAFAFA"/>
<path d="M133.088 113.935H129.356V116.557H133.088V113.935Z" fill="#FAFAFA"/>
<path d="M133.092 121.175H145.784V104.145H133.092V121.175Z" fill="#E0E0E0"/>
<path d="M137.244 106.094H135.232V121.176H137.244V106.094Z" fill="#F0F0F0"/>
<path d="M136.896 108.004H135.576V119.265H136.896V108.004Z" fill="#FAFAFA"/>
<path d="M137.24 121.18H144.076V106.098H137.24V121.18Z" fill="#E6E6E6"/>
<path d="M142.616 105.3H140.344V121.176H142.616V105.3Z" fill="#EBEBEB"/>
<path d="M142.616 110.344H140.344V112.788H142.616V110.344Z" fill="#FAFAFA"/>
<path d="M142.616 114.428H140.344V116.872H142.616V114.428Z" fill="#FAFAFA"/>
<path d="M142.616 121.175H150.336V105.3H142.616V121.175Z" fill="#E0E0E0"/>
<path d="M141.583 85.6197C143.526 83.7925 143.526 80.83 141.583 79.0028C139.64 77.1756 136.489 77.1756 134.546 79.0028C132.602 80.83 132.602 83.7925 134.546 85.6197C136.489 87.4469 139.64 87.4469 141.583 85.6197Z" fill="#F5F5F5"/>
<path d="M144.125 86.9383C146.004 86.6514 147.281 84.9861 146.976 83.2186C146.67 81.4512 144.899 80.251 143.02 80.5379C141.14 80.8248 139.864 82.4902 140.169 84.2576C140.474 86.025 142.245 87.2252 144.125 86.9383Z" fill="#EBEBEB"/>
<path d="M100 166.838C142.833 166.838 177.556 164.932 177.556 162.581C177.556 160.229 142.833 158.323 100 158.323C57.1671 158.323 22.4441 160.229 22.4441 162.581C22.4441 164.932 57.1671 166.838 100 166.838Z" fill="#F5F5F5"/>
<path d="M70.677 133.414H122.053V158.354C122.053 158.674 121.986 158.99 121.856 159.285C121.726 159.581 121.535 159.849 121.295 160.075C121.055 160.301 120.769 160.48 120.455 160.602C120.141 160.725 119.805 160.788 119.465 160.788H73.265C72.9251 160.788 72.5886 160.725 72.2746 160.602C71.9606 160.48 71.6753 160.301 71.435 160.075C71.1947 159.849 71.0041 159.581 70.874 159.285C70.7439 158.99 70.677 158.674 70.677 158.354V133.414Z" fill="#FF725E"/>
<path d="M70.6771 133.414H107.033L102.561 128.032C102.069 127.442 100.853 126.964 99.8412 126.964H67.1451C66.1371 126.964 65.7131 127.442 66.2051 128.032L70.6771 133.414Z" fill="#FF725E"/>
<path opacity="0.2" d="M70.6771 133.414H107.033L102.561 128.032C102.069 127.442 100.853 126.964 99.8412 126.964H67.1451C66.1371 126.964 65.7131 127.442 66.2051 128.032L70.6771 133.414Z" fill="black"/>
<path d="M122.053 133.414H85.7012L90.1732 129.905C90.6652 129.529 91.8812 129.209 92.8932 129.209H125.585C126.597 129.209 127.017 129.521 126.525 129.905L122.053 133.414Z" fill="#FF725E"/>
<path opacity="0.2" d="M85.7012 133.414H122.053V158.354C122.053 158.674 121.986 158.99 121.856 159.285C121.726 159.581 121.535 159.849 121.295 160.075C121.055 160.301 120.77 160.48 120.456 160.602C120.142 160.725 119.805 160.788 119.465 160.788H88.2892C87.9493 160.788 87.6128 160.725 87.2988 160.602C86.9848 160.48 86.6995 160.301 86.4592 160.075C86.2189 159.849 86.0282 159.581 85.8982 159.285C85.7681 158.99 85.7012 158.674 85.7012 158.354V133.414Z" fill="white"/>
<path opacity="0.5" d="M75.1892 133.414V150.52L76.4452 149.587L77.3292 150.52L78.0972 149.482L78.8852 150.52L79.9812 149.741L81.1892 150.52V133.414H75.1892Z" fill="white"/>
<path d="M83.3213 96.0991L76.8613 90.999" stroke="#FF725E" stroke-width="0.387872" stroke-miterlimit="10"/>
<path d="M86.6692 98.7436L84.7012 97.1865" stroke="#FF725E" stroke-width="0.387872" stroke-miterlimit="10"/>
<path d="M106.021 109.418L127.333 84.3727L98.957 61.9714L80.157 82.2552L77.357 87.3289C77.218 87.473 77.1121 87.6424 77.0459 87.8267C76.9797 88.011 76.9546 88.2061 76.9723 88.3999C76.9899 88.5937 77.0499 88.782 77.1484 88.953C77.247 89.124 77.382 89.2741 77.545 89.3938L103.145 109.606C103.561 109.921 104.089 110.077 104.622 110.042C105.156 110.008 105.655 109.785 106.021 109.418Z" fill="#FF725E"/>
<path opacity="0.5" d="M91.4052 90.9473L88.3372 95.5923L89.5732 95.8443L89.9932 96.9199L90.8132 96.9651L91.1932 97.8865L92.1972 98.1611L92.9692 99.3158L96.0372 94.6708L91.4052 90.9473Z" fill="white"/>
<path opacity="0.1" d="M126.405 83.6393L107.293 103.686L80.1453 82.2552L98.9573 61.9714L126.405 83.6393Z" fill="black"/>
<path d="M126.405 83.6387L107.293 103.685L115.205 104.235L134.021 83.9508L126.405 83.6387Z" fill="#FF725E"/>
<path opacity="0.3" d="M126.405 83.6387L107.293 103.685L115.205 104.235L134.021 83.9508L126.405 83.6387Z" fill="black"/>
<path d="M91.3452 61.655L72.2292 81.7056L80.1452 82.2547L98.9572 61.971L91.3452 61.655Z" fill="#FF725E"/>
<path opacity="0.4" d="M91.3452 61.655L72.2292 81.7056L80.1452 82.2547L98.9572 61.971L91.3452 61.655Z" fill="black"/>
<path opacity="0.1" d="M120.521 89.8113L126.405 83.6393L98.9573 61.9714L95.4453 69.93L120.521 89.8113Z" fill="black"/>
<path opacity="0.2" d="M80.1453 82.2552L98.9573 61.9714L95.4453 69.93L82.1973 83.8762L80.1453 82.2552Z" fill="black"/>
</svg>
