<svg width="97" height="96" viewBox="0 0 97 96" fill="none" xmlns="http://www.w3.org/2000/svg">
<path d="M19.3034 22.5962C10.8828 30.6792 10.5 31.3208 10.5 37.0943C10.5 42.6113 11.3931 44.1509 24.2793 61.0868C31.8069 71.0943 38.3138 79.3057 38.6966 79.3057C39.5897 79.434 70.3379 40.1736 71.3586 37.6075C71.869 36.0679 68.5517 35.8113 49.2862 35.9396C36.6552 35.9396 27.0862 36.1962 27.7241 36.5811C28.4897 36.8377 34.869 38.1208 42.1414 39.5321C49.4138 40.8151 55.7931 42.483 56.431 42.9962C57.4517 44.1509 40.4828 66.6038 38.8241 66.6038C37.2931 66.4755 15.6034 37.2226 15.731 35.5547C15.731 34.6566 18.9207 31.1925 22.7483 27.7283L29.6379 21.6981H46.4793H63.1931L71.9965 28.883C79.9069 35.2981 80.6724 36.3245 79.0138 38.1208C77.9931 39.4038 70.4655 48.7698 62.3 59.1623C54.0069 69.5547 46.0965 79.0491 44.5655 80.0755C42.0138 81.8717 41.8862 82 44.3103 82C45.969 82 53.8793 74.8151 65.7448 62.4981L84.5 42.9962V36.4528L84.3724 30.0377L74.4207 21.9547L64.469 14H46.2241H28.1069L19.3034 22.5962Z" fill="white"/>
</svg>
